<svg width="18" height="14" viewBox="0 0 18 14" fill="none" xmlns="http://www.w3.org/2000/svg">
<path d="M14.4651 8.00005L1 8.00005C0.447717 8.00005 1.42672e-06 7.55234 1.37844e-06 7.00005C1.33016e-06 6.44777 0.447717 6.00005 1 6.00005L14.4651 6.00005L11.2075 2.74251C10.7975 2.33246 10.7975 1.66764 11.2075 1.25759C11.6176 0.847538 12.2824 0.847538 12.6925 1.25759L17.6925 6.25759C18.1025 6.66764 18.1025 7.33246 17.6925 7.74251L12.6925 12.7425C12.2824 13.1526 11.6176 13.1526 11.2075 12.7425C10.7975 12.3325 10.7975 11.6676 11.2075 11.2576L14.4651 8.00005Z" fill="white"/>
</svg>
