<?xml version="1.0" encoding="UTF-8"?>
<svg width="24px" height="24px" viewBox="0 0 24 24" version="1.1" xmlns="http://www.w3.org/2000/svg" xmlns:xlink="http://www.w3.org/1999/xlink">
    <!-- Generator: Sketch 49.3 (51167) - http://www.bohemiancoding.com/sketch -->
    <title>DNS</title>
    <desc>Created with Sketch.</desc>
    <defs></defs>
    <g id="-" stroke="none" stroke-width="1" fill="none" fill-rule="evenodd">
        <g id="Registripidajate-nimekiri" transform="translate(-277.000000, -520.000000)">
            <g id="List-Grid" transform="translate(50.000000, 500.000000)">
                <g id="SP">
                    <g id="DNS" transform="translate(227.000000, 20.000000)">
                        <circle id="Oval-2" fill="#48A23F" cx="12" cy="12" r="12"></circle>
                        <path d="M18,10.1249902 C18,10.8749884 17.8164064,11.566393 17.4492188,12.199204 C17.0820311,12.832015 16.5820312,13.3320136 15.9492188,13.6992004 C15.3164062,14.0663871 14.625,14.2499803 13.875,14.2499803 C13.6093751,14.2499803 13.3515626,14.2265429 13.1015625,14.179668 L12.5390625,14.812479 C12.4296874,14.9374786 12.2890624,14.9999785 12.1171875,14.9999785 L11.25,14.9999785 L11.25,15.9374763 C11.25,16.0937261 11.1953126,16.226538 11.0859375,16.3359129 C10.9765624,16.4452877 10.8437501,16.499975 10.6875,16.499975 L9.75,16.499975 L9.75,17.4374727 C9.75,17.5937225 9.69531262,17.7265344 9.5859375,17.8359093 C9.47656238,17.9452841 9.34375012,17.9999714 9.1875,17.9999714 L6.5625,17.9999714 C6.40624988,17.9999714 6.27343762,17.9452841 6.1640625,17.8359093 C6.05468738,17.7265344 6,17.5937225 6,17.4374727 L6,15.6093521 C6,15.4531023 6.05468738,15.3202904 6.1640625,15.2109155 L9.9609375,11.4140496 C9.8203125,10.9921756 9.75,10.5624892 9.75,10.1249902 C9.75,9.37499195 9.93359363,8.68358735 10.3007812,8.05077636 C10.6679689,7.41796537 11.1679688,6.91796668 11.8007812,6.55077994 C12.4335938,6.18359319 13.125,6 13.875,6 C14.625,6 15.3164062,6.18359319 15.9492188,6.55077994 C16.5820312,6.91796668 17.0820311,7.41796537 17.4492188,8.05077636 C17.8164064,8.68358735 18,9.37499195 18,10.1249902 Z M13.8749812,8.99999285 C13.8749812,9.31249198 13.9843561,9.57811659 14.2031054,9.79686595 C14.4218548,10.0156153 14.6874794,10.1249902 14.9999785,10.1249902 C15.3124777,10.1249902 15.5781023,10.0156153 15.7968516,9.79686595 C16.015601,9.57811659 16.1249759,9.31249198 16.1249759,8.99999285 C16.1249759,8.68749371 16.015601,8.42186911 15.7968516,8.20311975 C15.5781023,7.98437039 15.3124777,7.87499553 14.9999785,7.87499553 C14.6874794,7.87499553 14.4218548,7.98437039 14.2031054,8.20311975 C13.9843561,8.42186911 13.8749812,8.68749371 13.8749812,8.99999285 Z" id="key" fill="#FFFFFF"></path>
                    </g>
                </g>
            </g>
        </g>
    </g>
</svg>