<?xml version="1.0" encoding="UTF-8"?>
<svg width="122px" height="100px" viewBox="0 0 122 100" version="1.1" xmlns="http://www.w3.org/2000/svg" xmlns:xlink="http://www.w3.org/1999/xlink">
    <!-- Generator: Sketch 50.2 (55047) - http://www.bohemiancoding.com/sketch -->
    <title>Spider</title>
    <desc>Created with Sketch.</desc>
    <defs></defs>
    <g id="Pages" stroke="none" stroke-width="1" fill="none" fill-rule="evenodd">
        <g id="Domeeniotsing-Registreeritud" transform="translate(-1128.000000, -1240.000000)" fill="#FF6E00">
            <path d="M1161.46637,1240 L1164.44982,1241.46982 L1155.42661,1259.58084 L1152.44541,1258.1155 L1161.46637,1240 Z M1173.68807,1240 L1176.67151,1241.46982 L1167.64718,1259.58084 L1164.66822,1258.11438 L1173.68807,1240 Z M1201.33118,1241.46982 L1204.31911,1240.00112 L1213.32886,1258.11438 L1210.34766,1259.58084 L1201.33118,1241.46982 Z M1213.55085,1241.46982 L1216.53766,1240.00112 L1225.55975,1258.11661 L1222.56846,1259.57972 L1213.55085,1241.46982 Z M1140.33852,1285.42107 L1140.33852,1281.94898 L1151.97743,1281.94898 L1151.97743,1285.42107 L1140.33852,1285.42107 Z M1152.44687,1268.27472 L1155.42582,1266.80489 L1164.44119,1284.91927 L1161.46895,1286.38574 L1152.44687,1268.27472 Z M1164.67024,1268.27639 L1167.64696,1266.80433 L1176.67129,1284.92095 L1173.68,1286.3863 L1164.67024,1268.27639 Z M1180.38529,1282.43892 C1179.95812,1281.50826 1179.62738,1280.53844 1179.40651,1279.54738 C1179.18003,1278.544 1179.06231,1277.51491 1179.06231,1276.48357 C1179.06231,1275.45783 1179.18003,1274.42873 1179.40651,1273.42088 C1179.62738,1272.42758 1179.95812,1271.45441 1180.38417,1270.53046 C1180.81582,1269.60874 1181.35398,1268.73177 1181.98857,1267.91744 C1182.62652,1267.09752 1183.36425,1266.35701 1184.18943,1265.70711 L1184.69396,1265.3089 L1187.11794,1267.73175 L1186.4699,1268.23624 C1185.8611,1268.70716 1185.30052,1269.26757 1184.80047,1269.90405 C1184.33294,1270.51032 1183.91363,1271.19378 1183.56046,1271.93204 C1183.23868,1272.62221 1182.98193,1273.3739 1182.80254,1274.15355 C1182.62988,1274.92538 1182.54131,1275.71174 1182.54131,1276.48357 C1182.54131,1277.25651 1182.62988,1278.03952 1182.80254,1278.81023 C1182.98193,1279.60107 1183.23868,1280.35611 1183.56382,1281.05411 C1183.91026,1281.77224 1184.32958,1282.45122 1184.80496,1283.07204 C1185.30612,1283.7074 1185.85214,1284.25662 1186.47102,1284.74097 L1187.11458,1285.24545 L1184.69733,1287.65936 L1184.1928,1287.26338 C1183.36986,1286.62579 1182.63212,1285.88416 1181.98969,1285.062 C1181.35623,1284.24991 1180.81918,1283.36735 1180.38529,1282.43892 Z M1193.09055,1269.91658 C1192.60396,1269.29129 1192.04337,1268.73311 1191.43233,1268.26107 L1190.78205,1267.76106 L1193.20603,1265.33261 L1193.71392,1265.72859 C1194.53574,1266.37401 1195.27011,1267.11787 1195.90021,1267.93892 C1196.54152,1268.77897 1197.07969,1269.65595 1197.49564,1270.54634 C1197.92505,1271.45799 1198.2614,1272.43004 1198.49573,1273.43565 C1198.72221,1274.4502 1198.83881,1275.48266 1198.83881,1276.51064 C1198.83881,1277.5375 1198.72221,1278.5666 1198.49573,1279.56662 C1198.26589,1280.56328 1197.93178,1281.53868 1197.49564,1282.46711 C1197.07632,1283.36421 1196.53928,1284.24454 1195.90021,1285.07677 C1195.26899,1285.90005 1194.53462,1286.64055 1193.71392,1287.28262 L1193.20715,1287.68084 L1190.78766,1285.27476 L1191.4256,1284.77028 C1192.05458,1284.26915 1192.60172,1283.71992 1193.09615,1283.09016 C1193.5805,1282.46152 1193.9987,1281.77918 1194.33393,1281.06999 C1194.66019,1280.3843 1194.91694,1279.63149 1195.09857,1278.83618 C1195.27011,1278.05988 1195.35868,1277.27799 1195.35868,1276.51064 C1195.35868,1275.72763 1195.27459,1274.96252 1195.09857,1274.17056 C1194.91694,1273.38755 1194.66019,1272.6381 1194.33281,1271.94681 C1193.99758,1271.23539 1193.58947,1270.57095 1193.09055,1269.91658 Z M1201.33073,1284.91916 L1210.34945,1266.80478 L1213.32841,1268.2746 L1204.31305,1286.38674 L1201.33073,1284.91916 Z M1225.54977,1268.27639 L1216.53441,1286.3863 L1213.55097,1284.91871 L1222.57081,1266.80433 L1225.54977,1268.27639 Z M1225.88635,1285.42107 L1225.88635,1281.94898 L1237.52638,1281.94898 L1237.52638,1285.42107 L1225.88635,1285.42107 Z M1128,1311.72428 L1137.01648,1293.6099 L1140.0089,1295.0786 L1130.98793,1313.18627 L1128,1311.72428 Z M1152.44574,1311.7226 L1161.46895,1293.60822 L1164.44119,1295.08028 L1155.42582,1313.18795 L1152.44574,1311.7226 Z M1164.66811,1311.7226 L1173.68123,1293.60822 L1176.6714,1295.07804 L1167.64707,1313.18795 L1164.66811,1311.7226 Z M1201.33073,1295.07816 L1204.31305,1293.60833 L1213.32841,1311.72271 L1210.34833,1313.18694 L1201.33073,1295.07816 Z M1213.55085,1295.07816 L1216.5343,1293.60833 L1225.54966,1311.72271 L1222.5707,1313.18694 L1213.55085,1295.07816 Z M1240.9824,1293.60945 L1250,1311.72383 L1247.00534,1313.18582 L1237.98886,1295.07816 L1240.9824,1293.60945 Z M1144.42184,1339.02929 L1144.42184,1319.29185 L1147.90196,1319.29185 L1147.90196,1339.02929 L1144.42184,1339.02929 Z M1164.67024,1321.88271 L1167.64696,1320.41289 L1176.67129,1338.52056 L1173.68448,1339.99709 L1164.67024,1321.88271 Z M1177.00652,1339.02929 L1177.00652,1335.55496 L1188.64431,1335.55496 L1188.64431,1339.02929 L1177.00652,1339.02929 Z M1189.22844,1339.02929 L1189.22844,1335.55496 L1200.86398,1335.55496 L1200.86398,1339.02929 L1189.22844,1339.02929 Z M1201.33286,1338.51899 L1210.34934,1320.41244 L1213.3283,1321.88227 L1204.31182,1340 L1201.33286,1338.51899 Z M1229.96182,1339.02929 L1229.96182,1319.29185 L1233.45315,1319.29185 L1233.45315,1339.02929 L1229.96182,1339.02929 Z" id="Spider"></path>
        </g>
    </g>
</svg>