<?xml version="1.0" encoding="UTF-8"?>
<svg width="300px" height="92px" viewBox="0 0 300 92" version="1.1" xmlns="http://www.w3.org/2000/svg" xmlns:xlink="http://www.w3.org/1999/xlink">
    <!-- Generator: Sketch 50.2 (55047) - http://www.bohemiancoding.com/sketch -->
    <title>Fish</title>
    <desc>Created with Sketch.</desc>
    <defs></defs>
    <g id="Pages" stroke="none" stroke-width="1" fill="none" fill-rule="evenodd">
        <g id="Domeeniotsing-Registreeritud" transform="translate(-230.000000, -700.000000)" fill="#48A23F">
            <path d="M499.108719,750.270136 L524.171456,725.110178 L530,731.065941 L510.806708,750.270136 L530,769.541048 L524.171456,775.440359 L499.108719,750.270136 Z M471.812728,750.271163 L452.665451,731.066968 L458.437754,725.106072 L483.505605,750.271163 L458.437754,775.441386 L452.665451,769.542075 L471.812728,750.271163 Z M430.004431,734.767188 C429.163382,731.05927 427.941433,727.479653 426.356479,724.056564 C424.753629,720.633476 422.777548,717.392575 420.42568,714.318467 C418.076368,711.264887 415.404952,708.560288 412.393537,706.238028 L418.61832,700 C422.102664,702.745656 425.206108,705.868519 427.91587,709.366022 C430.625631,712.86096 432.888026,716.568878 434.700499,720.512872 C436.525753,724.461998 437.91898,728.590746 438.898073,732.89655 C439.861828,737.207486 440.352652,741.574875 440.352652,746.006415 C440.352652,750.430257 439.861828,754.784816 438.898073,759.07779 C437.91898,763.365632 436.525753,767.486682 434.700499,771.451204 C432.888026,775.420857 430.625631,779.141606 427.91587,782.628846 C425.206108,786.131481 422.102664,789.241514 418.61832,792 L412.393537,785.754274 C415.404952,783.388391 418.076368,780.688924 420.42568,777.655873 C422.777548,774.597161 424.753629,771.363958 426.356479,767.946002 C427.941433,764.520347 429.163382,760.933032 430.004431,757.199453 C430.827585,753.465875 431.234049,749.72973 431.234049,746.006415 C431.234049,742.236912 430.827585,738.490503 430.004431,734.767188 Z M394.27009,734.767188 C393.44438,731.05927 392.219874,727.479653 390.622137,724.056564 C389.029513,720.633476 387.04832,717.392575 384.699008,714.318467 C382.349696,711.264887 379.673167,708.560288 376.666865,706.238028 L382.881422,700 C386.381105,702.745656 389.47688,705.868519 392.189198,709.366022 C394.898959,712.86096 397.161354,716.568878 398.971271,720.512872 C400.791412,724.461998 402.192308,728.590746 403.163732,732.89655 C404.135156,737.207486 404.628537,741.574875 404.628537,746.006415 C404.628537,750.430257 404.135156,754.784816 403.163732,759.07779 C402.192308,763.365632 400.791412,767.486682 398.971271,771.451204 C397.161354,775.420857 394.898959,779.141606 392.189198,782.628846 C389.47688,786.131481 386.381105,789.241514 382.881422,792 L376.666865,785.754274 C379.673167,783.388391 382.349696,780.688924 384.699008,777.655873 C387.04832,774.597161 389.029513,771.363958 390.622137,767.946002 C392.219874,764.520347 393.44438,760.933032 394.27009,757.199453 C395.0958,753.465875 395.515046,749.72973 395.515046,746.006415 C395.515046,742.236912 395.0958,738.490503 394.27009,734.767188 Z M358.550576,734.767188 C357.709527,731.05927 356.490135,727.479653 354.889841,724.056564 C353.299774,720.633476 351.331362,717.392575 348.979494,714.318467 C346.627625,711.264887 343.945984,708.560288 340.944795,706.238028 L347.164465,700 C350.653922,702.745656 353.759922,705.868519 356.462014,709.366022 C359.16155,712.86096 361.434171,716.568878 363.256869,720.512872 C365.071898,724.461998 366.465125,728.590746 367.436549,732.89655 C368.407972,737.207486 368.898797,741.574875 368.898797,746.006415 C368.898797,750.430257 368.407972,754.784816 367.436549,759.07779 C366.465125,763.365632 365.071898,767.486682 363.256869,771.451204 C361.434171,775.420857 359.16155,779.141606 356.462014,782.628846 C353.759922,786.131481 350.653922,789.241514 347.164465,792 L340.944795,785.754274 C343.945984,783.388391 346.627625,780.688924 348.979494,777.655873 C351.331362,774.597161 353.299774,771.363958 354.889841,767.946002 C356.490135,764.520347 357.709527,760.933032 358.550576,757.199453 C359.37373,753.465875 359.787863,749.72973 359.787863,746.006415 C359.787863,742.236912 359.37373,738.490503 358.550576,734.767188 Z M322.823648,734.767188 C321.992825,731.05927 320.770876,727.479653 319.170583,724.056564 C317.572846,720.633476 315.606991,717.392575 313.25001,714.318467 C310.90581,711.264887 308.226725,708.560288 305.210198,706.238028 L311.437537,700 C314.932107,702.745656 318.032994,705.868519 320.742756,709.366022 C323.447405,712.86096 325.707243,716.568878 327.529942,720.512872 C329.344971,724.461998 330.738197,728.590746 331.71729,732.89655 C332.688714,737.207486 333.174426,741.574875 333.174426,746.006415 C333.174426,750.430257 332.688714,754.784816 331.71729,759.07779 C330.738197,763.365632 329.344971,767.486682 327.529942,771.451204 C325.707243,775.420857 323.447405,779.141606 320.742756,782.628846 C318.032994,786.131481 314.932107,789.241514 311.437537,792 L305.210198,785.754274 C308.226725,783.388391 310.90581,780.688924 313.25001,777.655873 C315.606991,774.597161 317.572846,771.363958 319.170583,767.946002 C320.770876,764.520347 321.992825,760.933032 322.823648,757.199453 C323.657028,753.465875 324.071161,749.72973 324.071161,746.006415 C324.071161,742.236912 323.657028,738.490503 322.823648,734.767188 Z M288.831991,709.728346 L286.625836,734.292985 L278.885121,734.292985 L276.689191,709.728346 L288.831991,709.728346 Z M260.904063,769.538995 L255.085745,775.440872 L230,750.27065 L255.085745,725.110691 L260.904063,731.066455 L241.697989,750.27065 L260.904063,769.538995 Z" id="Fish"></path>
        </g>
    </g>
</svg>