<svg width="40" height="17" viewBox="0 0 40 17" fill="none" xmlns="http://www.w3.org/2000/svg">
<path d="M0.992266 16V12.64H3.21227V16H0.992266ZM13.6108 16.3C12.4308 16.3 11.3508 16.09 10.3708 15.67C9.41078 15.23 8.57078 14.64 7.85078 13.9C7.15078 13.14 6.60078 12.27 6.20078 11.29C5.82078 10.31 5.63078 9.27 5.63078 8.17C5.63078 6.69 5.97078 5.34 6.65078 4.12C7.33078 2.9 8.27078 1.92 9.47078 1.18C10.6908 0.439999 12.0808 0.0699995 13.6408 0.0699995C15.2208 0.0699995 16.5908 0.449999 17.7508 1.21C18.9308 1.95 19.8408 2.93 20.4808 4.15C21.1408 5.35 21.4708 6.65 21.4708 8.05C21.4708 8.25 21.4608 8.45 21.4408 8.65C21.4408 8.83 21.4308 8.97 21.4108 9.07H8.42078C8.50078 10.09 8.78078 11 9.26078 11.8C9.76078 12.58 10.4008 13.2 11.1808 13.66C11.9608 14.1 12.8008 14.32 13.7008 14.32C14.6608 14.32 15.5608 14.08 16.4008 13.6C17.2608 13.12 17.8508 12.49 18.1708 11.71L20.4508 12.34C20.1108 13.1 19.6008 13.78 18.9208 14.38C18.2608 14.98 17.4708 15.45 16.5508 15.79C15.6508 16.13 14.6708 16.3 13.6108 16.3ZM8.33078 7.24H19.0108C18.9308 6.22 18.6408 5.32 18.1408 4.54C17.6408 3.76 17.0008 3.15 16.2208 2.71C15.4408 2.27 14.5808 2.05 13.6408 2.05C12.7208 2.05 11.8708 2.27 11.0908 2.71C10.3108 3.15 9.67078 3.76 9.17078 4.54C8.69078 5.32 8.41078 6.22 8.33078 7.24ZM31.3354 16.3C30.1554 16.3 29.0754 16.09 28.0954 15.67C27.1354 15.23 26.2954 14.64 25.5754 13.9C24.8754 13.14 24.3254 12.27 23.9254 11.29C23.5454 10.31 23.3554 9.27 23.3554 8.17C23.3554 6.69 23.6954 5.34 24.3754 4.12C25.0554 2.9 25.9954 1.92 27.1954 1.18C28.4154 0.439999 29.8054 0.0699995 31.3654 0.0699995C32.9454 0.0699995 34.3154 0.449999 35.4754 1.21C36.6554 1.95 37.5654 2.93 38.2054 4.15C38.8654 5.35 39.1954 6.65 39.1954 8.05C39.1954 8.25 39.1854 8.45 39.1654 8.65C39.1654 8.83 39.1554 8.97 39.1354 9.07H26.1454C26.2254 10.09 26.5054 11 26.9854 11.8C27.4854 12.58 28.1254 13.2 28.9054 13.66C29.6854 14.1 30.5254 14.32 31.4254 14.32C32.3854 14.32 33.2854 14.08 34.1254 13.6C34.9854 13.12 35.5754 12.49 35.8954 11.71L38.1754 12.34C37.8354 13.1 37.3254 13.78 36.6454 14.38C35.9854 14.98 35.1954 15.45 34.2754 15.79C33.3754 16.13 32.3954 16.3 31.3354 16.3ZM26.0554 7.24H36.7354C36.6554 6.22 36.3654 5.32 35.8654 4.54C35.3654 3.76 34.7254 3.15 33.9454 2.71C33.1654 2.27 32.3054 2.05 31.3654 2.05C30.4454 2.05 29.5954 2.27 28.8154 2.71C28.0354 3.15 27.3954 3.76 26.8954 4.54C26.4154 5.32 26.1354 6.22 26.0554 7.24Z" fill="#0085CA"/>
</svg>
