<?xml version="1.0" encoding="UTF-8"?>
<svg id="Layer_2" xmlns="http://www.w3.org/2000/svg" version="1.1" viewBox="0 0 93.4 83.1">
  <!-- Generator: Adobe Illustrator 29.2.1, SVG Export Plug-In . SVG Version: 2.1.0 Build 116)  -->
  <defs>
    <style>
      .st0 {
        fill: #fff;
      }
    </style>
  </defs>
  <g id="Layer_1-2">
    <g>
      <path class="st0" d="M10.9,31.8c3.4,0,5.4,2.6,5.7,5.9H5.1c.5-3.5,2.7-5.9,5.8-5.9M42.5,4.2c3.4,0,5.3,2.6,5.7,5.9h-11.5c.5-3.5,2.7-5.9,5.8-5.9M20.5,47l-2.9-2.9c-1.8,1.7-3.6,2.7-6.1,2.7s-5.9-2-6.5-5.7h14.7l1.8-1.8c0-2.8-.8-5.4-2.2-7.4l15.4-11.8c2.1,2.1,5,3.3,8.2,3.3s6.9-1.6,9-4l-2.9-2.9c-1.8,1.7-3.6,2.7-6.1,2.7s-5.9-2-6.5-5.7h14.7l1.8-1.8C53.1,5.4,49.5,0,42.5,0s-11,5.3-11,11.7.7,4.9,2,6.8l-15.4,11.8c-1.8-1.6-4.1-2.7-7.2-2.7C4.6,27.6,0,32.9,0,39.4s5,11.7,11.5,11.7,2.2-.2,3.2-.4l10.5,20.4,1.9-1-10.4-20.2c1.5-.7,2.7-1.7,3.8-2.9"/>
      <path class="st0" d="M36.4,75.7c0,4.1-3.3,7.4-7.4,7.4s-7.4-3.3-7.4-7.4,3.3-7.4,7.4-7.4,7.4,3.3,7.4,7.4"/>
      <path class="st0" d="M65.1,31.5c0,0,.2.1.3.2.2,0,.5,0,.7,0,0,0,.2-.1.3-.2,0,0,.1-.2.2-.3,0-.1,0-.2,0-.3s0-.2,0-.3,0-.2-.2-.3c0,0-.2-.1-.3-.2s-.2,0-.3,0-.2,0-.3,0c0,0-.2.1-.3.2,0,0-.1.2-.2.3,0,.1,0,.2,0,.3s0,.2,0,.3,0,.2.2.3"/>
      <polygon class="st0" points="37.3 37.2 34.2 37.2 34.2 34.8 37.2 34.8 37.2 33.8 34.2 33.8 34.2 31.7 37.3 31.7 37.3 30.7 33.1 30.7 33.1 38.2 37.3 38.2 37.3 37.2"/>
      <path class="st0" d="M39.7,38.2c.3,0,.7,0,1,0s.4,0,.5,0c.2,0,.4,0,.5-.1.2,0,.3-.1.5-.2s.3-.2.4-.3c.1-.1.2-.3.3-.4,0-.2.1-.3.1-.6s0-.4,0-.6c0-.2-.2-.3-.3-.5-.2-.1-.3-.3-.6-.4s-.5-.2-.8-.3c-.3,0-.5-.2-.7-.2-.2,0-.3-.2-.4-.2,0,0-.2-.1-.2-.2v-.2s0-.2,0-.2c0,0,0-.1.2-.2,0,0,.2-.1.4-.1.3,0,.8,0,1.3,0,.3,0,.6,0,.9.2h0s0-1,0-1h0c-.3,0-.6-.1-.8-.1-.3,0-.5,0-.7,0-.5,0-.8,0-1.1.2-.3.1-.5.2-.7.4-.2.2-.3.3-.4.5,0,.2-.1.4-.1.5,0,.2,0,.5.1.7s.2.3.4.5c.2.1.3.2.6.3s.5.2.7.3c.3,0,.6.2.8.3.2,0,.3.2.4.2l.2.2v.2c0,.2,0,.4-.2.5-.2.1-.5.2-1,.2s-.6,0-1,0-.6-.1-1-.2h0s0,1,0,1h0c.3,0,.6.1.9.2"/>
      <path class="st0" d="M45.7,36.2c0,.7.2,1.2.5,1.5.4.3.9.5,1.6.5s.5,0,.7,0c.2,0,.5,0,.7-.1h0v-1h0c-.2,0-.5.1-.7.2-.7,0-1.2,0-1.5-.2-.2-.2-.3-.5-.3-.8v-2.8h2.5v-1h-2.5v-1.8l-1.1.3v1.5h-1.6v1h1.6v2.8h0Z"/>
      <path class="st0" d="M51.8,34.5c0-.2.2-.5.3-.6.1-.2.3-.3.5-.4s.4-.2.7-.2.5,0,.7.1c.2,0,.3.2.5.4.1.2.2.4.3.6s.1.5.1.9,0,.5,0,.8-.2.5-.3.6c-.1.2-.3.3-.5.4s-.4.2-.7.2-.5,0-.7-.1c-.2,0-.3-.2-.5-.4s-.2-.4-.3-.6-.1-.5-.1-.9,0-.5,0-.8M52.1,38.1c.3.1.7.2,1.1.2s.8,0,1.2-.2c.3-.2.6-.3.9-.6.2-.3.4-.6.5-1,.1-.4.2-.8.2-1.2s0-.9-.2-1.2c-.1-.4-.3-.7-.5-.9s-.5-.4-.8-.6c-.3-.1-.7-.2-1.1-.2s-.8,0-1.2.2-.6.3-.9.6c-.2.3-.4.6-.5,1-.1.4-.2.8-.2,1.2s0,.9.2,1.2.3.7.5.9.5.4.8.6"/>
      <path class="st0" d="M58.3,34.4h0c.2-.2.3-.4.4-.5.1-.2.3-.3.4-.3.1,0,.2-.1.3-.2,0,0,.2,0,.3,0,.3,0,.5,0,.7.3.2.2.2.5.2.9v3.6h1.1v-3.7c0-.7-.2-1.2-.5-1.6-.3-.3-.8-.5-1.4-.5s-.3,0-.5,0-.3,0-.5.2c-.2,0-.3.2-.5.3l-.2.2h-.1c0,.1,0-.7,0-.7h-1v5.7h1.1v-3.8h0Z"/>
      <polygon class="st0" points="68.1 37.2 66.4 37.2 66.4 32.4 63.6 32.4 63.6 33.4 65.3 33.4 65.3 37.2 63.4 37.2 63.4 38.2 68.1 38.2 68.1 37.2"/>
      <path class="st0" d="M76.7,34.4h0c.2-.2.3-.4.4-.5.1-.2.3-.3.4-.3.1,0,.2-.1.3-.2.1,0,.2,0,.3,0,.3,0,.5,0,.7.3.2.2.2.5.2.9v3.6h1.1v-3.7c0-.7-.2-1.2-.5-1.6-.3-.3-.8-.5-1.4-.5s-.3,0-.5,0c-.2,0-.3,0-.5.2-.2,0-.3.2-.5.3l-.2.2h-.1c0,.1,0-.7,0-.7h-1v5.7h1.1v-3.8h0Z"/>
      <polygon class="st0" points="32.9 43.7 34.6 43.7 34.6 49.1 32.9 49.1 32.9 50.1 37.4 50.1 37.4 49.1 35.7 49.1 35.7 43.7 37.4 43.7 37.4 42.7 32.9 42.7 32.9 43.7"/>
      <path class="st0" d="M43.6,50.1v-3.7c0-.7-.2-1.2-.5-1.6-.3-.3-.8-.5-1.4-.5s-.3,0-.5,0-.3,0-.5.2c-.2,0-.3.2-.5.3l-.2.2h-.1c0,.1,0-.7,0-.7h-1v5.7h1.1v-3.8h0c.2-.2.3-.4.4-.5.1-.1.3-.3.4-.3.1,0,.2-.1.3-.2.1,0,.2,0,.3,0,.3,0,.5,0,.7.3.2.2.2.5.2.9v3.6h1.1Z"/>
      <path class="st0" d="M46.2,48.2c0,.7.2,1.2.5,1.5.4.3.9.5,1.6.5s.5,0,.7,0c.2,0,.5,0,.7-.1h0v-1h0c-.2,0-.5.1-.7.2-.7,0-1.2,0-1.5-.2-.2-.2-.3-.5-.3-.8v-2.8h2.5v-1h-2.5v-1.8l-1.1.3v1.5h-1.6v1h1.6v2.8h0Z"/>
      <path class="st0" d="M59.7,44.6c-.2.1-.5.3-.8.6h-.1c0,.1,0-.8,0-.8h-1v5.7h1.1v-3.6h0c.2-.2.3-.4.5-.5.2-.2.3-.3.4-.4.1,0,.3-.2.4-.2.1,0,.2,0,.4,0,.3,0,.5,0,.6.3.1.2.2.5.2,1h0c0,0,1.1,0,1.1,0h0c0-.8-.1-1.4-.4-1.8s-.8-.6-1.4-.6-.7,0-1,.3"/>
      <path class="st0" d="M64.8,46.4h0c.2-.2.3-.4.4-.5.1-.2.3-.3.4-.3.1,0,.2-.1.3-.2.1,0,.2,0,.3,0,.3,0,.5,0,.7.3s.2.5.2.9v3.6h1.1v-3.7c0-.7-.2-1.2-.5-1.6-.3-.3-.8-.5-1.4-.5s-.3,0-.5,0c-.2,0-.3,0-.5.2-.2,0-.3.2-.5.3l-.2.2h-.1c0,.1,0-.7,0-.7h-1v5.7h1.1v-3.8h0Z"/>
      <path class="st0" d="M70.8,46.7c0-.2,0-.3.1-.5,0-.2.2-.4.3-.5s.3-.2.4-.3c.2,0,.3-.1.6-.1s.4,0,.6.1c.2,0,.3.2.4.3.1.1.2.3.3.5,0,.2,0,.3,0,.5h0c0,0-2.8,0-2.8,0h0c0,0,0,0,0,0ZM70.3,49.5c.2.2.5.5.9.6.3.1.8.2,1.3.2s.7,0,1,0,.6-.1.9-.2h0v-1h0c-.1,0-.2,0-.4.1s-.3,0-.4,0-.3,0-.5,0-.3,0-.5,0c-.6,0-1-.2-1.3-.4-.3-.3-.4-.6-.4-1.1h0c0,0,3.9,0,3.9,0h0c0-.2,0-.2,0-.3v-.3c0-.4,0-.8-.2-1.1-.1-.3-.3-.6-.5-.8-.2-.2-.5-.4-.8-.5-.3-.1-.7-.2-1.1-.2s-.8,0-1.1.2c-.3.2-.6.4-.8.7s-.4.6-.5,1c-.1.4-.2.7-.2,1.1s0,.9.2,1.2c.1.4.3.7.5.9"/>
      <path class="st0" d="M77.1,48.2c0,.7.2,1.2.5,1.5.4.3.9.5,1.6.5s.5,0,.7,0c.2,0,.5,0,.7-.1h0v-1h0c-.2,0-.4.1-.7.2-.7,0-1.2,0-1.5-.2-.2-.2-.3-.5-.3-.8v-2.8h2.5v-1h-2.5v-1.8l-1.1.3v1.5h-1.6v1h1.6v2.8h0Z"/>
      <polygon class="st0" points="33.1 62.1 34.2 62.1 34.2 58.9 37.2 58.9 37.2 57.9 34.2 57.9 34.2 55.7 37.3 55.7 37.3 54.7 33.1 54.7 33.1 62.1"/>
      <path class="st0" d="M42.7,60c0,.2-.2.5-.3.6-.1.2-.3.3-.5.4s-.4.2-.7.2-.5,0-.7-.1c-.2,0-.3-.2-.5-.4s-.2-.4-.3-.6-.1-.5-.1-.9,0-.5,0-.8.2-.5.3-.6c.1-.2.3-.3.5-.4s.4-.2.7-.2.5,0,.7.1c.2,0,.3.2.5.4.1.2.2.4.3.6s.1.5.1.9,0,.5,0,.8M43.3,57c-.2-.2-.5-.4-.8-.6-.3-.1-.7-.2-1.1-.2s-.8,0-1.2.2-.6.4-.9.6c-.2.3-.4.6-.5,1-.1.4-.2.8-.2,1.2s0,.9.2,1.2.3.7.5.9.5.4.8.6c.3.1.7.2,1.1.2s.8,0,1.2-.2c.3-.2.6-.3.9-.6.2-.3.4-.6.5-1,.1-.4.2-.8.2-1.2s0-.9-.2-1.2c-.1-.4-.3-.7-.5-.9"/>
      <path class="st0" d="M48.8,60.1h0c-.2.2-.3.4-.4.5-.1.1-.3.3-.4.3s-.2.1-.3.2-.2,0-.3,0c-.6,0-.9-.4-.9-1.2v-3.6h-1.1v3.7c0,.7.2,1.2.5,1.6.3.3.8.5,1.4.5s.3,0,.5,0c.2,0,.3,0,.5-.2.2,0,.3-.2.5-.3l.2-.2h.1c0-.1,0,.7,0,.7h1v-5.7h-1.1v3.8h0Z"/>
      <path class="st0" d="M54.4,56.3c-.2,0-.3,0-.5,0s-.3,0-.5.2c-.2,0-.3.2-.5.3l-.2.2h-.1c0,.1,0-.7,0-.7h-1v5.7h1.1v-3.8h0c.2-.2.3-.4.4-.5.1-.1.3-.3.4-.3.1,0,.2-.1.3-.2.1,0,.2,0,.3,0,.3,0,.5,0,.7.3.2.2.2.5.2.9v3.6h1.1v-3.7c0-.7-.2-1.2-.5-1.6-.3-.3-.8-.5-1.4-.5"/>
      <path class="st0" d="M61.4,60h0c-.3.4-.6.7-.8.9-.3.2-.5.3-.7.3-.3,0-.6-.2-.8-.5-.2-.3-.3-.8-.3-1.5s.1-1.2.4-1.5c.3-.3.7-.5,1.2-.5s.4,0,.6,0c.2,0,.3,0,.4.1h0v2.5h0ZM61.4,56.4h0c-.1,0-.2,0-.3,0-.2,0-.4,0-.5,0-.4,0-.8,0-1.2.2-.3.1-.6.3-.9.6-.2.3-.4.6-.6,1-.1.4-.2.8-.2,1.3s0,.8.1,1.2c0,.3.2.7.4.9.2.2.4.5.6.6s.5.2.9.2.7,0,1.1-.3c.2-.1.4-.3.7-.6h.1c0-.1,0,.8,0,.8h1v-8h-1.1v2.3h0Z"/>
      <path class="st0" d="M67.5,60.5h0c-.3.3-.6.5-.8.6-.3.1-.5.2-.8.2s-.3,0-.4,0c-.1,0-.2,0-.3-.2v-.2c-.2,0-.2-.2-.2-.3,0-.2,0-.3,0-.4s.1-.2.2-.3.2-.2.4-.2c.2,0,.4,0,.6,0h1.2v.9h0ZM68,56.8c-.2-.2-.4-.3-.7-.3s-.6-.1-.9-.1-.4,0-.6,0c-.2,0-.4,0-.5,0-.2,0-.3,0-.5.1-.2,0-.3,0-.4.1h0v1h0c.3-.2.6-.3.9-.3s.6,0,.9,0,.7,0,.9.3c.2.2.3.4.3.7v.4h-1.1c-.8,0-1.5.2-1.9.5-.4.3-.7.8-.7,1.4s0,.5.1.7.2.4.3.5c.2.2.3.3.6.3.2,0,.5.1.8.1s.7,0,1-.2c.2,0,.5-.2.7-.5h.1c0,0,0,.6,0,.6h1v-3.9c0-.3,0-.6-.2-.8,0-.2-.3-.4-.4-.6"/>
      <path class="st0" d="M72.3,54.6l-1.1.3v1.5h-1.6v1h1.6v2.8c0,.7.2,1.2.5,1.5.4.3.9.5,1.6.5s.5,0,.7,0c.2,0,.5,0,.7-.1h0v-1h0c-.2,0-.4.1-.7.2-.7,0-1.2,0-1.5-.2-.2-.2-.3-.5-.3-.8v-2.8h2.5v-1h-2.5v-1.8h0Z"/>
      <polygon class="st0" points="79.4 56.4 76.7 56.4 76.7 57.3 78.3 57.3 78.3 61.2 76.5 61.2 76.5 62.1 81.1 62.1 81.1 61.2 79.4 61.2 79.4 56.4"/>
      <path class="st0" d="M79,54.1c0,0-.2,0-.3,0s-.2,0-.3,0-.2,0-.3.2c0,0-.1.2-.2.3,0,0,0,.2,0,.3s0,.2,0,.3,0,.2.2.3.2.1.3.2c.2,0,.4,0,.7,0,0,0,.2,0,.3-.2s.1-.2.2-.3c0,0,0-.2,0-.3s0-.2,0-.3c0,0,0-.2-.2-.3,0,0-.2-.1-.3-.2"/>
      <path class="st0" d="M86.2,60c0,.2-.2.5-.3.6-.1.2-.3.3-.5.4s-.4.2-.7.2-.5,0-.7-.1c-.2,0-.3-.2-.5-.4-.1-.2-.2-.4-.3-.6s-.1-.5-.1-.9,0-.5,0-.8.2-.5.3-.6c.1-.2.3-.3.5-.4s.4-.2.7-.2.4,0,.7.1c.2,0,.3.2.5.4.1.2.2.4.3.6s.1.5.1.9,0,.5,0,.8M86.7,57c-.2-.2-.5-.4-.8-.6-.3-.1-.7-.2-1.1-.2s-.8,0-1.2.2c-.3.2-.6.4-.9.6-.2.3-.4.6-.5,1-.1.4-.2.8-.2,1.2s0,.9.2,1.2.3.7.5.9c.2.2.5.4.8.6s.7.2,1.1.2.8,0,1.2-.2c.3-.2.6-.3.9-.6.2-.3.4-.6.5-1s.2-.8.2-1.2,0-.9-.2-1.2c-.1-.4-.3-.7-.5-.9"/>
      <path class="st0" d="M92.9,56.8c-.3-.3-.8-.5-1.4-.5s-.3,0-.5,0c-.2,0-.3,0-.5.2-.2,0-.3.2-.5.3l-.2.2h-.1c0,.1,0-.7,0-.7h-1v5.7h1.1v-3.8h0c.2-.2.3-.4.4-.5.1-.2.3-.3.4-.3.1,0,.2-.1.3-.2.1,0,.2,0,.3,0,.3,0,.5,0,.7.3.2.2.2.5.2.9v3.6h1.1v-3.7c0-.7-.2-1.2-.5-1.6"/>
      <path class="st0" d="M52.3,46.7c0-.2,0-.3.1-.5,0-.2.2-.4.3-.5.1-.1.3-.2.4-.3.2,0,.3-.1.5-.1s.4,0,.6.1c.2,0,.3.2.4.3.1.1.2.3.3.5,0,.2,0,.3,0,.5h0c0,0-2.8,0-2.8,0h0c0,0,0,0,0,0ZM52.6,50c.3.1.8.2,1.3.2s.7,0,1,0,.6-.1.9-.2h0v-1h0c-.1,0-.2,0-.4.1s-.3,0-.4,0-.3,0-.5,0-.3,0-.5,0c-.6,0-1-.2-1.3-.4-.3-.3-.4-.6-.5-1.1h0c0,0,3.9,0,3.9,0h0c0-.2,0-.2,0-.3v-.3c0-.4,0-.8-.2-1.1-.1-.3-.3-.6-.5-.8s-.5-.4-.8-.5c-.3-.1-.7-.2-1.1-.2s-.8,0-1.1.2-.6.4-.8.7-.4.6-.5,1c-.1.4-.2.7-.2,1.1s0,.9.2,1.2c.1.4.3.7.5.9s.5.5.9.6"/>
      <path class="st0" d="M70.5,36.2c0-.1.1-.2.2-.3,0,0,.2-.2.4-.2.2,0,.4,0,.6,0h1.2v.9h0c-.3.3-.6.5-.8.6-.3.1-.5.2-.8.2s-.3,0-.4,0c-.1,0-.2,0-.3-.2v-.2c-.2,0-.2-.2-.2-.3s0-.3,0-.4M70.3,38.1c.2,0,.5.1.8.1s.7,0,1-.2c.2,0,.5-.2.7-.5h.1c0,0,0,.6,0,.6h1v-3.9c0-.3,0-.6-.2-.8,0-.2-.3-.4-.4-.6-.2-.2-.4-.3-.7-.3-.3,0-.6-.1-.9-.1s-.4,0-.6,0c-.2,0-.4,0-.5,0-.2,0-.3,0-.5.1-.2,0-.3,0-.4.1h0v1h0c.3-.2.6-.3.9-.3s.6,0,.9,0,.7,0,.9.3.3.4.3.7v.4h-1.1c-.8,0-1.5.2-1.9.5s-.7.8-.7,1.4,0,.5.1.7.2.4.3.5c.2.2.3.3.6.3"/>
    </g>
  </g>
</svg>