<svg width="16" height="16" viewBox="0 0 16 16" fill="none" xmlns="http://www.w3.org/2000/svg">
<g clip-path="url(#clip0_500_11075)">
<path d="M14 2H2C1.46957 2 0.960859 2.21071 0.585786 2.58579C0.210714 2.96086 0 3.46957 0 4L0 12C0 12.5304 0.210714 13.0391 0.585786 13.4142C0.960859 13.7893 1.46957 14 2 14H14C14.5304 14 15.0391 13.7893 15.4142 13.4142C15.7893 13.0391 16 12.5304 16 12V4C16 3.46957 15.7893 2.96086 15.4142 2.58579C15.0391 2.21071 14.5304 2 14 2ZM14.6667 12C14.6667 12.1768 14.5964 12.3464 14.4714 12.4714C14.3464 12.5964 14.1768 12.6667 14 12.6667H2C1.82319 12.6667 1.65362 12.5964 1.5286 12.4714C1.40357 12.3464 1.33333 12.1768 1.33333 12V4C1.33333 3.82319 1.40357 3.65362 1.5286 3.5286C1.65362 3.40357 1.82319 3.33333 2 3.33333H14C14.1768 3.33333 14.3464 3.40357 14.4714 3.5286C14.5964 3.65362 14.6667 3.82319 14.6667 4V12Z" fill="white"/>
<path d="M12.3319 4.75452L7.99854 7.23185L3.6652 4.75452C3.58921 4.71074 3.50534 4.68237 3.41838 4.67101C3.33142 4.65964 3.24308 4.66552 3.15839 4.6883C3.07371 4.71109 2.99433 4.75032 2.92481 4.80378C2.85529 4.85723 2.79698 4.92386 2.7532 4.99985C2.70943 5.07584 2.68105 5.15971 2.66969 5.24667C2.65833 5.33363 2.66421 5.42198 2.68699 5.50666C2.70977 5.59135 2.74901 5.67072 2.80246 5.74024C2.85592 5.80977 2.92254 5.86808 2.99854 5.91185L7.6652 8.57852C7.7666 8.63395 7.88031 8.663 7.99587 8.663C8.11143 8.663 8.22514 8.63395 8.32654 8.57852L12.9932 5.91185C13.0714 5.8696 13.1403 5.81213 13.196 5.74284C13.2517 5.67355 13.2929 5.59383 13.3173 5.50837C13.3417 5.42291 13.3488 5.33343 13.3381 5.2452C13.3274 5.15697 13.2992 5.07176 13.2551 4.9946C13.211 4.91743 13.1519 4.84986 13.0813 4.79586C13.0107 4.74186 12.93 4.70252 12.844 4.68015C12.758 4.65778 12.6684 4.65284 12.5804 4.66561C12.4925 4.67838 12.408 4.70861 12.3319 4.75452Z" fill="white"/>
</g>
<defs>
<clipPath id="clip0_500_11075">
<rect width="16" height="16" fill="white"/>
</clipPath>
</defs>
</svg>
