<?xml version="1.0" encoding="UTF-8"?>
<svg width="20px" height="20px" viewBox="0 0 20 20" version="1.1" xmlns="http://www.w3.org/2000/svg" xmlns:xlink="http://www.w3.org/1999/xlink">
    <!-- Generator: Sketch 50.2 (55047) - http://www.bohemiancoding.com/sketch -->
    <title>EP</title>
    <desc>Created with Sketch.</desc>
    <defs></defs>
    <g id="Pages" stroke="none" stroke-width="1" fill="none" fill-rule="evenodd">
        <g id="Registripidajate-nimekiri" transform="translate(-235.000000, -420.000000)" fill="#FFFFFF">
            <g id="Filter" transform="translate(0.000000, 320.000000)">
                <g id="Active-Copy" transform="translate(195.000000, 90.000000)">
                    <path d="M50,30 C44.4771525,30 40,25.5228475 40,20 C40,14.4771525 44.4771525,10 50,10 C55.5228475,10 60,14.4771525 60,20 C60,25.5228475 55.5228475,30 50,30 Z M56.4467667,18.6654 C56.3494333,18.2564 56.2001,17.9010667 56.0044333,17.6087333 C55.8051,17.3117333 55.5537667,17.0780667 55.2577667,16.9147333 C54.9607667,16.7500667 54.6131,16.6667333 54.2241,16.6667333 C53.7821,16.6667333 53.3651,16.7604 52.9851,16.9467333 C52.6907667,17.0897333 52.4084333,17.3164 52.1427667,17.6210667 L52.0877667,16.7817333 L50.8207667,16.7817333 L50.8207667,26.1067333 L52.2181,26.1067333 L52.2181,23.4577333 C52.3727667,23.4894 52.5267667,23.5137333 52.6774333,23.5297333 C52.8841,23.5514 53.0947667,23.5624 53.3031,23.5624 C53.7654333,23.5624 54.2011,23.4884 54.5991,23.3424 C55.0004333,23.1957333 55.3531,22.9717333 55.6477667,22.6764 C55.9427667,22.3820667 56.1757667,22.0077333 56.3421,21.5644 C56.5071,21.1247333 56.5911,20.6040667 56.5911,20.0184 C56.5911,19.5240667 56.5427667,19.0690667 56.4467667,18.6654 Z M54.6897667,21.8164 C54.3744333,22.1927333 53.9481,22.3760667 53.3864333,22.3760667 C53.1801,22.3760667 52.9661,22.3517333 52.7517667,22.3057333 C52.5674333,22.2657333 52.3884333,22.2120667 52.2181,22.1470667 L52.2181,19.1784 C52.3984333,18.9460667 52.5707667,18.7474 52.7291,18.5877333 C52.8947667,18.4230667 53.0531,18.2890667 53.2001,18.1900667 C53.3434333,18.0937333 53.4827667,18.0247333 53.6137667,17.9844 C53.7441,17.9440667 53.8744333,17.9237333 54.0001,17.9237333 C54.2024333,17.9237333 54.3707667,17.9710667 54.5147667,18.0684 C54.6601,18.1677333 54.7827667,18.3084 54.8777667,18.4874 C54.9767667,18.6730667 55.0501,18.9024 55.0967667,19.1674 C55.1437667,19.4394 55.1681,19.7427333 55.1681,20.0700667 C55.1681,20.8497333 55.0067667,21.4374 54.6897667,21.8164 Z M46.8028333,22.4442 C45.7655,22.4442 45.0135,21.7815333 44.8395,20.7145333 L44.8358333,20.6908667 L49.2865,20.6908667 L49.8221667,20.1558667 C49.7971667,19.1895333 49.4995,18.3195333 48.9821667,17.7052 C48.4108333,17.0258667 47.5908333,16.6665333 46.6111667,16.6665333 C44.7421667,16.6665333 43.3335,18.1742 43.3335,20.1742 C43.3335,22.1995333 44.7818333,23.6695333 46.7771667,23.6695333 C47.8688333,23.6695333 48.7711667,23.2705333 49.4591667,22.4838667 L48.6261667,21.6512 C48.0505,22.2068667 47.5041667,22.4442 46.8028333,22.4442 Z M44.8265,19.6855333 C44.9728333,18.5955333 45.6681667,17.8912 46.5981667,17.8912 C47.5538333,17.8912 48.2175,18.5788667 48.3315,19.6865333 L48.3335,19.7085333 L44.8238333,19.7085333 L44.8265,19.6855333 Z" id="EP"></path>
                </g>
            </g>
        </g>
    </g>
</svg>