<?xml version="1.0" encoding="UTF-8"?>
<svg width="24px" height="24px" viewBox="0 0 24 24" version="1.1" xmlns="http://www.w3.org/2000/svg" xmlns:xlink="http://www.w3.org/1999/xlink">
    <!-- Generator: Sketch 49.3 (51167) - http://www.bohemiancoding.com/sketch -->
    <title>EP</title>
    <desc>Created with Sketch.</desc>
    <defs></defs>
    <g id="-" stroke="none" stroke-width="1" fill="none" fill-rule="evenodd">
        <g id="Registripidajate-nimekiri" transform="translate(-311.000000, -520.000000)" fill="#000000">
            <g id="List-Grid" transform="translate(50.000000, 500.000000)">
                <g id="SP">
                    <path d="M273,44 C266.372583,44 261,38.627417 261,32 C261,25.372583 266.372583,20 273,20 C279.627417,20 285,25.372583 285,32 C285,38.627417 279.627417,44 273,44 Z M280.73612,30.39848 C280.61932,29.90768 280.44012,29.48128 280.20532,29.13048 C279.96612,28.77408 279.66452,28.49368 279.30932,28.29768 C278.95292,28.10008 278.53572,28.00008 278.06892,28.00008 C277.53852,28.00008 277.03812,28.11248 276.58212,28.33608 C276.22892,28.50768 275.89012,28.77968 275.57132,29.14528 L275.50532,28.13808 L273.98492,28.13808 L273.98492,39.32808 L275.66172,39.32808 L275.66172,36.14928 C275.84732,36.18728 276.03212,36.21648 276.21292,36.23568 C276.46092,36.26168 276.71372,36.27488 276.96372,36.27488 C277.51852,36.27488 278.04132,36.18608 278.51892,36.01088 C279.00052,35.83488 279.42372,35.56608 279.77732,35.21168 C280.13132,34.85848 280.41092,34.40928 280.61052,33.87728 C280.80852,33.34968 280.90932,32.72488 280.90932,32.02208 C280.90932,31.42888 280.85132,30.88288 280.73612,30.39848 Z M278.62772,34.17968 C278.24932,34.63128 277.73772,34.85128 277.06372,34.85128 C276.81612,34.85128 276.55932,34.82208 276.30212,34.76688 C276.08092,34.71888 275.86612,34.65448 275.66172,34.57648 L275.66172,31.01408 C275.87812,30.73528 276.08492,30.49688 276.27492,30.30528 C276.47372,30.10768 276.66372,29.94688 276.84012,29.82808 C277.01212,29.71248 277.17932,29.62968 277.33652,29.58128 C277.49292,29.53288 277.64932,29.50848 277.80012,29.50848 C278.04292,29.50848 278.24492,29.56528 278.41772,29.68208 C278.59212,29.80128 278.73932,29.97008 278.85332,30.18488 C278.97212,30.40768 279.06012,30.68288 279.11612,31.00088 C279.17252,31.32728 279.20172,31.69128 279.20172,32.08408 C279.20172,33.01968 279.00812,33.72488 278.62772,34.17968 Z M269.1634,34.93304 C267.9186,34.93304 267.0162,34.13784 266.8074,32.85744 L266.803,32.82904 L272.1438,32.82904 L272.7866,32.18704 C272.7566,31.02744 272.3994,29.98344 271.7786,29.24624 C271.093,28.43104 270.109,27.99984 268.9334,27.99984 C266.6906,27.99984 265.0002,29.80904 265.0002,32.20904 C265.0002,34.63944 266.7382,36.40344 269.1326,36.40344 C270.4426,36.40344 271.5254,35.92464 272.351,34.98064 L271.3514,33.98144 C270.6606,34.64824 270.005,34.93304 269.1634,34.93304 Z M266.7918,31.62264 C266.9674,30.31464 267.8018,29.46944 268.9178,29.46944 C270.0646,29.46944 270.861,30.29464 270.9978,31.62384 L271.0002,31.65024 L266.7886,31.65024 L266.7918,31.62264 Z" id="EP"></path>
                </g>
            </g>
        </g>
    </g>
</svg>