<svg width="100" height="31" viewBox="0 0 100 31" xmlns="http://www.w3.org/2000/svg"><path d="M975.702906,187.93885 L984.057152,179.461038 L986,181.467872 L979.602236,187.93885 L986,194.43231 L984.057152,196.420121 L975.702906,187.93885 Z M966.604243,187.939196 L960.221817,181.468217 L962.145918,179.459655 L970.501868,187.939196 L962.145918,196.420467 L960.221817,194.432656 L966.604243,187.939196 Z M952.668144,182.715031 C952.387794,181.465624 951.980478,180.259448 951.45216,179.106016 C950.917876,177.952584 950.259183,176.860542 949.475227,175.824701 C948.692123,174.795777 947.801651,173.884445 946.797846,173.101944 L948.872773,171 C950.034221,171.925167 951.068703,172.977436 951.971957,174.155942 C952.87521,175.333584 953.629342,176.582992 954.2335,177.911946 C954.841918,179.24263 955.306327,180.633838 955.632691,182.084707 C955.953943,183.537305 956.117551,185.008925 956.117551,186.502162 C956.117551,187.992804 955.953943,189.460101 955.632691,190.906647 C955.306327,192.351463 954.841918,193.740078 954.2335,195.075949 C953.629342,196.41355 952.87521,197.66728 951.971957,198.842328 C951.068703,200.022564 950.034221,201.07051 948.872773,202 L946.797846,199.895462 C947.801651,199.098262 948.692123,198.188659 949.475227,197.166653 C950.259183,196.136 950.917876,195.046551 951.45216,193.894848 C951.980478,192.740552 952.387794,191.531783 952.668144,190.273729 C952.942528,189.015675 953.078016,187.756757 953.078016,186.502162 C953.078016,185.232003 952.942528,183.969626 952.668144,182.715031 Z M940.756697,182.715031 C940.48146,181.465624 940.073291,180.259448 939.540712,179.106016 C939.009838,177.952584 938.34944,176.860542 937.566336,175.824701 C936.783232,174.795777 935.891056,173.884445 934.888955,173.101944 L936.960474,171 C938.127035,171.925167 939.15896,172.977436 940.063066,174.155942 C940.96632,175.333584 941.720451,176.582992 942.323757,177.911946 C942.930471,179.24263 943.397436,180.633838 943.721244,182.084707 C944.045052,183.537305 944.209512,185.008925 944.209512,186.502162 C944.209512,187.992804 944.045052,189.460101 943.721244,190.906647 C943.397436,192.351463 942.930471,193.740078 942.323757,195.075949 C941.720451,196.41355 940.96632,197.66728 940.063066,198.842328 C939.15896,200.022564 938.127035,201.07051 936.960474,202 L934.888955,199.895462 C935.891056,199.098262 936.783232,198.188659 937.566336,197.166653 C938.34944,196.136 939.009838,195.046551 939.540712,193.894848 C940.073291,192.740552 940.48146,191.531783 940.756697,190.273729 C941.031933,189.015675 941.171682,187.756757 941.171682,186.502162 C941.171682,185.232003 941.031933,183.969626 940.756697,182.715031 Z M928.850192,182.715031 C928.569842,181.465624 928.163378,180.259448 927.629947,179.106016 C927.099925,177.952584 926.443787,176.860542 925.659831,175.824701 C924.875875,174.795777 923.981995,173.884445 922.981598,173.101944 L925.054822,171 C926.217974,171.925167 927.253307,172.977436 928.154005,174.155942 C929.05385,175.333584 929.81139,176.582992 930.418956,177.911946 C931.023966,179.24263 931.488375,180.633838 931.812183,182.084707 C932.135991,183.537305 932.299599,185.008925 932.299599,186.502162 C932.299599,187.992804 932.135991,189.460101 931.812183,190.906647 C931.488375,192.351463 931.023966,193.740078 930.418956,195.075949 C929.81139,196.41355 929.05385,197.66728 928.154005,198.842328 C927.253307,200.022564 926.217974,201.07051 925.054822,202 L922.981598,199.895462 C923.981995,199.098262 924.875875,198.188659 925.659831,197.166653 C926.443787,196.136 927.099925,195.046551 927.629947,193.894848 C928.163378,192.740552 928.569842,191.531783 928.850192,190.273729 C929.124577,189.015675 929.262621,187.756757 929.262621,186.502162 C929.262621,185.232003 929.124577,183.969626 928.850192,182.715031 Z M916.941216,182.715031 C916.664275,181.465624 916.256959,180.259448 915.723528,179.106016 C915.190949,177.952584 914.535664,176.860542 913.750003,175.824701 C912.968603,174.795777 912.075575,173.884445 911.070066,173.101944 L913.145846,171 C914.310702,171.925167 915.344331,172.977436 916.247585,174.155942 C917.149135,175.333584 917.902414,176.582992 918.509981,177.911946 C919.11499,179.24263 919.579399,180.633838 919.905763,182.084707 C920.229571,183.537305 920.391475,185.008925 920.391475,186.502162 C920.391475,187.992804 920.229571,189.460101 919.905763,190.906647 C919.579399,192.351463 919.11499,193.740078 918.509981,195.075949 C917.902414,196.41355 917.149135,197.66728 916.247585,198.842328 C915.344331,200.022564 914.310702,201.07051 913.145846,202 L911.070066,199.895462 C912.075575,199.098262 912.968603,198.188659 913.750003,197.166653 C914.535664,196.136 915.190949,195.046551 915.723528,193.894848 C916.256959,192.740552 916.664275,191.531783 916.941216,190.273729 C917.219009,189.015675 917.357054,187.756757 917.357054,186.502162 C917.357054,185.232003 917.219009,183.969626 916.941216,182.715031 Z M905.610664,174.27803 L904.875279,182.555245 L902.29504,182.555245 L901.563064,174.27803 L905.610664,174.27803 Z M896.301354,194.431618 L894.361915,196.420294 L886,187.939023 L894.361915,179.461211 L896.301354,181.468045 L889.89933,187.939023 L896.301354,194.431618 Z" transform="translate(-886 -171)" fill="#FFF" fill-rule="evenodd"/></svg>