<svg width="200" height="61" viewBox="0 0 200 61" xmlns="http://www.w3.org/2000/svg"><path d="M1025.40581,99.3312861 L1042.1143,82.6491395 L1046,86.5980699 L1033.20447,99.3312861 L1046,112.108738 L1042.1143,116.020238 L1025.40581,99.3312861 Z M1007.20849,99.3319666 L994.443634,86.5987505 L998.291836,82.6464173 L1015.00374,99.3319666 L998.291836,116.020919 L994.443634,112.109419 L1007.20849,99.3319666 Z M979.336287,89.0521574 C978.775588,86.5936463 977.960956,84.2202047 976.904319,81.9505481 C975.835753,79.6808914 974.518365,77.5320336 972.950453,75.4937662 C971.384245,73.46911 969.603301,71.675843 967.595692,70.1360835 L971.745547,66 C974.068443,67.8204892 976.137405,69.891083 977.943913,72.21008 C979.750421,74.5273757 981.258684,76.9858868 982.466999,79.600926 C983.683836,82.219368 984.612653,84.9569074 985.265382,87.8118428 C985.907885,90.670181 986.235102,93.5659499 986.235102,96.5042535 C986.235102,99.4374529 985.907885,102.324715 985.265382,105.171143 C984.612653,108.014169 983.683836,110.746604 982.466999,113.375255 C981.258684,116.007308 979.750421,118.474326 977.943913,120.786517 C976.137405,123.108917 974.068443,125.171004 971.745547,127 L967.595692,122.858812 C969.603301,121.290129 971.384245,119.500265 972.950453,117.48922 C974.518365,115.461161 975.835753,113.317407 976.904319,111.051153 C977.960956,108.779795 978.775588,106.40125 979.336287,103.925724 C979.885057,101.450199 980.156033,98.972973 980.156033,96.5042535 C980.156033,94.0049089 979.885057,91.5208769 979.336287,89.0521574 Z M955.513393,89.0521574 C954.96292,86.5936463 954.146583,84.2202047 953.081425,81.9505481 C952.019676,79.6808914 950.69888,77.5320336 949.132672,75.4937662 C947.566464,73.46911 945.782111,71.675843 943.77791,70.1360835 L947.920948,66 C950.25407,67.8204892 952.31792,69.891083 954.126132,72.21008 C955.932639,74.5273757 957.440903,76.9858868 958.647514,79.600926 C959.860942,82.219368 960.794872,84.9569074 961.442488,87.8118428 C962.090104,90.670181 962.419025,93.5659499 962.419025,96.5042535 C962.419025,99.4374529 962.090104,102.324715 961.442488,105.171143 C960.794872,108.014169 959.860942,110.746604 958.647514,113.375255 C957.440903,116.007308 955.932639,118.474326 954.126132,120.786517 C952.31792,123.108917 950.25407,125.171004 947.920948,127 L943.77791,122.858812 C945.782111,121.290129 947.566464,119.500265 949.132672,117.48922 C950.69888,115.461161 952.019676,113.317407 953.081425,111.051153 C954.146583,108.779795 954.96292,106.40125 955.513393,103.925724 C956.063867,101.450199 956.343364,98.972973 956.343364,96.5042535 C956.343364,94.0049089 956.063867,91.5208769 955.513393,89.0521574 Z M931.700384,89.0521574 C931.139685,86.5936463 930.326756,84.2202047 929.259894,81.9505481 C928.199849,79.6808914 926.887575,77.5320336 925.319662,75.4937662 C923.75175,73.46911 921.963989,71.675843 919.963197,70.1360835 L924.109643,66 C926.435948,67.8204892 928.506615,69.891083 930.30801,72.21008 C932.1077,74.5273757 933.622781,76.9858868 934.837913,79.600926 C936.047932,82.219368 936.97675,84.9569074 937.624366,87.8118428 C938.271982,90.670181 938.599198,93.5659499 938.599198,96.5042535 C938.599198,99.4374529 938.271982,102.324715 937.624366,105.171143 C936.97675,108.014169 936.047932,110.746604 934.837913,113.375255 C933.622781,116.007308 932.1077,118.474326 930.30801,120.786517 C928.506615,123.108917 926.435948,125.171004 924.109643,127 L919.963197,122.858812 C921.963989,121.290129 923.75175,119.500265 925.319662,117.48922 C926.887575,115.461161 928.199849,113.317407 929.259894,111.051153 C930.326756,108.779795 931.139685,106.40125 931.700384,103.925724 C932.249153,101.450199 932.525242,98.972973 932.525242,96.5042535 C932.525242,94.0049089 932.249153,91.5208769 931.700384,89.0521574 Z M907.882432,89.0521574 C907.32855,86.5936463 906.513917,84.2202047 905.447055,81.9505481 C904.381897,79.6808914 903.071327,77.5320336 901.500006,75.4937662 C899.937207,73.46911 898.15115,71.675843 896.140132,70.1360835 L900.291691,66 C902.621405,67.8204892 904.688663,69.891083 906.495171,72.21008 C908.29827,74.5273757 909.804829,76.9858868 911.019961,79.600926 C912.22998,82.219368 913.158798,84.9569074 913.811527,87.8118428 C914.459143,90.670181 914.782951,93.5659499 914.782951,96.5042535 C914.782951,99.4374529 914.459143,102.324715 913.811527,105.171143 C913.158798,108.014169 912.22998,110.746604 911.019961,113.375255 C909.804829,116.007308 908.29827,118.474326 906.495171,120.786517 C904.688663,123.108917 902.621405,125.171004 900.291691,127 L896.140132,122.858812 C898.15115,121.290129 899.937207,119.500265 901.500006,117.48922 C903.071327,115.461161 904.381897,113.317407 905.447055,111.051153 C906.513917,108.779795 907.32855,106.40125 907.882432,103.925724 C908.438018,101.450199 908.714107,98.972973 908.714107,96.5042535 C908.714107,94.0049089 908.438018,91.5208769 907.882432,89.0521574 Z M885.221327,72.4503166 L883.750557,88.7377402 L878.59008,88.7377402 L877.126127,72.4503166 L885.221327,72.4503166 Z M866.602709,112.107377 L862.72383,116.020578 L846,99.3316264 L862.72383,82.6494798 L866.602709,86.5984102 L853.79866,99.3316264 L866.602709,112.107377 Z" transform="translate(-846 -66)" fill="#FFF" fill-rule="evenodd"/></svg>