<svg width="160" height="49" viewBox="0 0 160 49" xmlns="http://www.w3.org/2000/svg"><path d="M273.52465,74.7743118 L286.891443,61.373899 L290,64.5459906 L279.763578,74.7743118 L290,85.038167 L286.891443,88.1801913 L273.52465,74.7743118 Z M258.966788,74.7748584 L248.754907,64.5465372 L251.833469,61.3717123 L265.202989,74.7748584 L251.833469,88.180738 L248.754907,85.0387136 L258.966788,74.7748584 Z M236.66903,66.5173068 C236.220471,64.5424372 235.568764,62.6359022 234.723455,60.8127353 C233.868602,58.9895685 232.814692,57.2634368 231.560362,55.6261401 C230.307396,53.9997769 228.882641,52.5592837 227.276553,51.3224277 L230.596437,48 C232.454754,49.4623602 234.109924,51.1256241 235.55513,52.988425 C237.000337,54.8498591 238.206947,56.8247288 239.173599,58.925334 C240.147068,61.0286726 240.890123,63.2276797 241.412306,65.5209885 C241.926308,67.8170307 242.188081,70.14314 242.188081,72.5034167 C242.188081,74.8595933 241.926308,77.1788693 241.412306,79.4653446 C240.890123,81.7490865 240.147068,83.9439935 239.173599,86.0555323 C238.206947,88.1698045 237.000337,90.1515075 235.55513,92.0088417 C234.109924,93.8743759 232.454754,95.5308063 230.596437,97 L227.276553,93.6734722 C228.882641,92.4133824 230.307396,90.9756227 231.560362,89.360193 C232.814692,87.7310964 233.868602,86.0090648 234.723455,84.1886314 C235.568764,82.3640978 236.220471,80.4534628 236.66903,78.4649262 C237.108045,76.4763897 237.324826,74.4864865 237.324826,72.5034167 C237.324826,70.4957465 237.108045,68.5003765 236.66903,66.5173068 Z M217.610715,66.5173068 C217.170336,64.5424372 216.517266,62.6359022 215.66514,60.8127353 C214.81574,58.9895685 213.759104,57.2634368 212.506137,55.6261401 C211.253171,53.9997769 209.825689,52.5592837 208.222328,51.3224277 L211.536759,48 C213.403256,49.4623602 215.054336,51.1256241 216.500905,52.988425 C217.946112,54.8498591 219.152722,56.8247288 220.118011,58.925334 C221.088753,61.0286726 221.835898,63.2276797 222.35399,65.5209885 C222.872083,67.8170307 223.13522,70.14314 223.13522,72.5034167 C223.13522,74.8595933 222.872083,77.1788693 222.35399,79.4653446 C221.835898,81.7490865 221.088753,83.9439935 220.118011,86.0555323 C219.152722,88.1698045 217.946112,90.1515075 216.500905,92.0088417 C215.054336,93.8743759 213.403256,95.5308063 211.536759,97 L208.222328,93.6734722 C209.825689,92.4133824 211.253171,90.9756227 212.506137,89.360193 C213.759104,87.7310964 214.81574,86.0090648 215.66514,84.1886314 C216.517266,82.3640978 217.170336,80.4534628 217.610715,78.4649262 C218.051093,76.4763897 218.274691,74.4864865 218.274691,72.5034167 C218.274691,70.4957465 218.051093,68.5003765 217.610715,66.5173068 Z M198.560307,66.5173068 C198.111748,64.5424372 197.461405,62.6359022 196.607915,60.8127353 C195.759879,58.9895685 194.71006,57.2634368 193.45573,55.6261401 C192.2014,53.9997769 190.771191,52.5592837 189.170557,51.3224277 L192.487714,48 C194.348758,49.4623602 196.005292,51.1256241 197.446408,52.988425 C198.88616,54.8498591 200.098225,56.8247288 201.07033,58.925334 C202.038346,61.0286726 202.7814,63.2276797 203.299493,65.5209885 C203.817585,67.8170307 204.079359,70.14314 204.079359,72.5034167 C204.079359,74.8595933 203.817585,77.1788693 203.299493,79.4653446 C202.7814,81.7490865 202.038346,83.9439935 201.07033,86.0555323 C200.098225,88.1698045 198.88616,90.1515075 197.446408,92.0088417 C196.005292,93.8743759 194.348758,95.5308063 192.487714,97 L189.170557,93.6734722 C190.771191,92.4133824 192.2014,90.9756227 193.45573,89.360193 C194.71006,87.7310964 195.759879,86.0090648 196.607915,84.1886314 C197.461405,82.3640978 198.111748,80.4534628 198.560307,78.4649262 C198.999323,76.4763897 199.220194,74.4864865 199.220194,72.5034167 C199.220194,70.4957465 198.999323,68.5003765 198.560307,66.5173068 Z M179.505946,66.5173068 C179.06284,64.5424372 178.411134,62.6359022 177.557644,60.8127353 C176.705518,58.9895685 175.657062,57.2634368 174.400005,55.6261401 C173.149765,53.9997769 171.72092,52.5592837 170.112106,51.3224277 L173.433353,48 C175.297124,49.4623602 176.95093,51.1256241 178.396136,52.988425 C179.838616,54.8498591 181.043863,56.8247288 182.015969,58.925334 C182.983984,61.0286726 183.727038,63.2276797 184.249221,65.5209885 C184.767314,67.8170307 185.026361,70.14314 185.026361,72.5034167 C185.026361,74.8595933 184.767314,77.1788693 184.249221,79.4653446 C183.727038,81.7490865 182.983984,83.9439935 182.015969,86.0555323 C181.043863,88.1698045 179.838616,90.1515075 178.396136,92.0088417 C176.95093,93.8743759 175.297124,95.5308063 173.433353,97 L170.112106,93.6734722 C171.72092,92.4133824 173.149765,90.9756227 174.400005,89.360193 C175.657062,87.7310964 176.705518,86.0090648 177.557644,84.1886314 C178.411134,82.3640978 179.06284,80.4534628 179.505946,78.4649262 C179.950415,76.4763897 180.171286,74.4864865 180.171286,72.5034167 C180.171286,70.4957465 179.950415,68.5003765 179.505946,66.5173068 Z M161.377062,53.1814018 L160.200446,66.2647421 L156.072064,66.2647421 L154.900902,53.1814018 L161.377062,53.1814018 Z M146.482167,85.0370736 L143.379064,88.1804647 L130,74.7745851 L143.379064,61.3741723 L146.482167,64.5462639 L136.238928,74.7745851 L146.482167,85.0370736 Z" transform="translate(-130 -48)" fill="#009DE1" fill-rule="evenodd"/></svg>