<svg width="201" height="62" viewBox="0 0 201 62" xmlns="http://www.w3.org/2000/svg"><path d="M180.258353,715.245061 L196.966845,698.562914 L200.85254,702.511845 L188.057012,715.245061 L200.85254,728.022513 L196.966845,731.934013 L180.258353,715.245061 Z M162.061026,715.245741 L149.296174,702.512525 L153.144377,698.560192 L169.856277,715.245741 L153.144377,731.934694 L149.296174,728.023194 L162.061026,715.245741 Z M134.188828,704.965932 C133.628129,702.507421 132.813496,700.13398 131.756859,697.864323 C130.688293,695.594666 129.370906,693.445808 127.802993,691.407541 C126.236785,689.382885 124.455842,687.589618 122.448232,686.049858 L126.598087,681.913775 C128.920983,683.734264 130.989946,685.804858 132.796453,688.123855 C134.602961,690.44115 136.111225,692.899662 137.31954,695.514701 C138.536376,698.133143 139.465194,700.870682 140.117922,703.725618 C140.760426,706.583956 141.087642,709.479725 141.087642,712.418028 C141.087642,715.351228 140.760426,718.23849 140.117922,721.084918 C139.465194,723.927944 138.536376,726.660379 137.31954,729.289029 C136.111225,731.921082 134.602961,734.388101 132.796453,736.700292 C130.989946,739.022692 128.920983,741.084779 126.598087,742.913775 L122.448232,738.772587 C124.455842,737.203904 126.236785,735.41404 127.802993,733.402995 C129.370906,731.374936 130.688293,729.231182 131.756859,726.964928 C132.813496,724.69357 133.628129,722.315024 134.188828,719.839499 C134.737597,717.363974 135.008573,714.886748 135.008573,712.418028 C135.008573,709.918684 134.737597,707.434652 134.188828,704.965932 Z M110.365934,704.965932 C109.81546,702.507421 108.999123,700.13398 107.933965,697.864323 C106.872216,695.594666 105.55142,693.445808 103.985212,691.407541 C102.419004,689.382885 100.634652,687.589618 98.6304507,686.049858 L102.773489,681.913775 C105.10661,683.734264 107.17046,685.804858 108.978672,688.123855 C110.78518,690.44115 112.293443,692.899662 113.500054,695.514701 C114.713482,698.133143 115.647412,700.870682 116.295028,703.725618 C116.942644,706.583956 117.271565,709.479725 117.271565,712.418028 C117.271565,715.351228 116.942644,718.23849 116.295028,721.084918 C115.647412,723.927944 114.713482,726.660379 113.500054,729.289029 C112.293443,731.921082 110.78518,734.388101 108.978672,736.700292 C107.17046,739.022692 105.10661,741.084779 102.773489,742.913775 L98.6304507,738.772587 C100.634652,737.203904 102.419004,735.41404 103.985212,733.402995 C105.55142,731.374936 106.872216,729.231182 107.933965,726.964928 C108.999123,724.69357 109.81546,722.315024 110.365934,719.839499 C110.916407,717.363974 111.195905,714.886748 111.195905,712.418028 C111.195905,709.918684 110.916407,707.434652 110.365934,704.965932 Z M86.5529243,704.965932 C85.9922252,702.507421 85.1792967,700.13398 84.1124346,697.864323 C83.0523896,695.594666 81.7401151,693.445808 80.1722028,691.407541 C78.6042904,689.382885 76.8165295,687.589618 74.815737,686.049858 L78.9621835,681.913775 C81.2884882,683.734264 83.359155,685.804858 85.1605499,688.123855 C86.9602406,690.44115 88.4753211,692.899662 89.6904532,695.514701 C90.9004725,698.133143 91.8292901,700.870682 92.4769061,703.725618 C93.124522,706.583956 93.4517385,709.479725 93.4517385,712.418028 C93.4517385,715.351228 93.124522,718.23849 92.4769061,721.084918 C91.8292901,723.927944 90.9004725,726.660379 89.6904532,729.289029 C88.4753211,731.921082 86.9602406,734.388101 85.1605499,736.700292 C83.359155,739.022692 81.2884882,741.084779 78.9621835,742.913775 L74.815737,738.772587 C76.8165295,737.203904 78.6042904,735.41404 80.1722028,733.402995 C81.7401151,731.374936 83.0523896,729.231182 84.1124346,726.964928 C85.1792967,724.69357 85.9922252,722.315024 86.5529243,719.839499 C87.1016936,717.363974 87.3777825,714.886748 87.3777825,712.418028 C87.3777825,709.918684 87.1016936,707.434652 86.5529243,704.965932 Z M62.7349725,704.965932 C62.1810904,702.507421 61.3664577,700.13398 60.2995956,697.864323 C59.2344378,695.594666 57.9238676,693.445808 56.3525468,691.407541 C54.7897472,689.382885 53.0036905,687.589618 50.9926725,686.049858 L55.1442317,681.913775 C57.4739449,683.734264 59.5412033,685.804858 61.347711,688.123855 C63.1508101,690.44115 64.6573694,692.899662 65.8725014,695.514701 C67.0825207,698.133143 68.0113384,700.870682 68.6640671,703.725618 C69.3116831,706.583956 69.635491,709.479725 69.635491,712.418028 C69.635491,715.351228 69.3116831,718.23849 68.6640671,721.084918 C68.0113384,723.927944 67.0825207,726.660379 65.8725014,729.289029 C64.6573694,731.921082 63.1508101,734.388101 61.347711,736.700292 C59.5412033,739.022692 57.4739449,741.084779 55.1442317,742.913775 L50.9926725,738.772587 C53.0036905,737.203904 54.7897472,735.41404 56.3525468,733.402995 C57.9238676,731.374936 59.2344378,729.231182 60.2995956,726.964928 C61.3664577,724.69357 62.1810904,722.315024 62.7349725,719.839499 C63.2905588,717.363974 63.5666478,714.886748 63.5666478,712.418028 C63.5666478,709.918684 63.2905588,707.434652 62.7349725,704.965932 Z M40.0738674,688.364091 L38.6030975,704.651515 L33.4426208,704.651515 L31.9786678,688.364091 L40.0738674,688.364091 Z M21.4552493,728.021152 L17.5763705,731.934353 L0.852540378,715.245401 L17.5763705,698.563255 L21.4552493,702.512185 L8.65119998,715.245401 L21.4552493,728.021152 Z" transform="translate(0 -681)" fill="#EAEBED" fill-rule="evenodd"/></svg>