<svg width="16" height="16" viewBox="0 0 16 16" fill="none" xmlns="http://www.w3.org/2000/svg">
<path d="M11.8253 15.7716C11.1865 15.7719 10.5587 15.6052 10.0042 15.2881L9.92598 15.2441C6.3205 13.1816 3.3041 10.2291 1.16494 6.66861L0.757151 5.98895C0.339484 5.29411 0.166411 4.47946 0.265513 3.67483C0.364616 2.8702 0.73019 2.12189 1.30398 1.54916L2.11646 0.736678C2.79922 0.0539197 3.90963 0.0539197 4.59177 0.736678L6.38184 2.52675C6.65124 2.79742 6.82509 3.14851 6.87706 3.52685C6.92902 3.90518 6.85628 4.29015 6.66984 4.62344L5.99701 5.81826C5.98287 5.8434 5.97734 5.87248 5.98126 5.90105C5.98519 5.92963 5.99835 5.95614 6.01874 5.97654L10.0042 9.96199C10.0249 9.98229 10.0517 9.99533 10.0804 9.99913C10.1092 10.0029 10.1384 9.99731 10.1637 9.98309L11.3567 9.31088L11.3573 9.31026C11.6906 9.12403 12.0755 9.0514 12.4538 9.10336C12.8321 9.15532 13.1832 9.32905 13.454 9.59826L15.2447 11.3896C15.9274 12.0723 15.9274 13.1827 15.2447 13.8649L14.3962 14.7127C14.0583 15.0495 13.6573 15.3164 13.2161 15.4981C12.775 15.6798 12.3024 15.7728 11.8253 15.7716ZM3.35412 1.46599C3.22377 1.46599 3.09343 1.51564 2.99412 1.61495L2.18163 2.42682C1.80399 2.80378 1.56337 3.2963 1.49813 3.82589C1.43289 4.35548 1.54677 4.89167 1.82163 5.34902L2.22943 6.02868C4.25855 9.40631 7.11979 12.2073 10.5398 14.1641L10.618 14.2081C11.5652 14.75 12.7569 14.5967 13.5179 13.8345L14.3664 12.9866C14.4137 12.9393 14.4512 12.8832 14.4768 12.8215C14.5024 12.7597 14.5156 12.6935 14.5156 12.6266C14.5156 12.5597 14.5024 12.4935 14.4768 12.4318C14.4512 12.37 14.4137 12.3139 14.3664 12.2666L12.5757 10.4753C12.4969 10.397 12.3947 10.3465 12.2846 10.3314C12.1745 10.3164 12.0625 10.3377 11.9656 10.3921L10.7726 11.0643C10.511 11.2108 10.2088 11.268 9.91183 11.2274C9.61481 11.1867 9.33914 11.0504 9.12653 10.839L5.14108 6.85357C4.92951 6.64123 4.79303 6.36563 4.75236 6.06865C4.71169 5.77167 4.76907 5.46953 4.91577 5.20813L5.5886 4.01392C5.64266 3.91699 5.66372 3.8051 5.6486 3.69515C5.63349 3.5852 5.58301 3.48315 5.50481 3.4044L3.71412 1.61495C3.66687 1.56764 3.61075 1.53013 3.54897 1.50457C3.48719 1.479 3.42097 1.46589 3.35412 1.46599Z" fill="white"/>
</svg>
