<svg width="125" height="120" viewBox="0 0 125 120" xmlns="http://www.w3.org/2000/svg"><path d="M260.750216,110.339468 C260.750216,108.204674 261.343899,106.58713 262.531283,105.486788 C263.718667,104.386447 265.440348,103.763808 267.696378,103.618853 L267.854695,98.7562894 L270.803351,98.7562894 L271.060616,106.326865 L268.745229,106.326865 C267.940446,106.326865 267.267605,106.412519 266.726686,106.58383 C266.185766,106.755141 265.750399,106.998925 265.42057,107.315191 C265.090741,107.631457 264.853268,108.0169 264.708143,108.471532 C264.563018,108.926165 264.490457,109.436794 264.490457,110.003437 C264.490457,110.965413 264.688351,111.821953 265.084146,112.573085 C265.479941,113.324216 266.034045,113.956738 266.746475,114.47067 C267.458906,114.984602 268.306553,115.37334 269.289443,115.636895 C270.272334,115.90045 271.344261,116.032225 272.505259,116.032225 L273,116.032225 L273,119.115802 L272.46568,119.115802 C271.133171,119.115802 269.916121,118.990615 268.814492,118.740238 C267.712864,118.489861 266.729988,118.150539 265.865837,117.722262 C265.001685,117.293986 264.249686,116.789944 263.609818,116.210124 C262.96995,115.630303 262.435635,115.017547 262.006858,114.371838 C261.57808,113.726128 261.261449,113.057368 261.056955,112.365536 C260.852461,111.673705 260.750216,110.998355 260.750216,110.339468 Z M269.358707,96.0482766 C268.989299,96.0482766 268.646282,95.9790945 268.329646,95.8407282 C268.01301,95.7023619 267.739257,95.5145819 267.508376,95.2773825 C267.277496,95.0401831 267.096093,94.7601602 266.964161,94.4373055 C266.83223,94.1144508 266.766265,93.775129 266.766265,93.4193299 C266.766265,93.0635308 266.83223,92.7275034 266.964161,92.4112375 C267.096093,92.0949717 267.277496,91.8215376 267.508376,91.5909271 C267.739257,91.3603166 268.01301,91.1758309 268.329646,91.0374646 C268.646282,90.8990983 268.989299,90.8299162 269.358707,90.8299162 C269.714922,90.8299162 270.051343,90.8990983 270.367979,91.0374646 C270.684614,91.1758309 270.961666,91.3603166 271.199143,91.5909271 C271.43662,91.8215376 271.621321,92.0949717 271.753253,92.4112375 C271.885185,92.7275034 271.951149,93.0635308 271.951149,93.4193299 C271.951149,93.775129 271.885185,94.1144508 271.753253,94.4373055 C271.621321,94.7601602 271.43662,95.0401831 271.199143,95.2773825 C270.961666,95.5145819 270.684614,95.7023619 270.367979,95.8407282 C270.051343,95.9790945 269.714922,96.0482766 269.358707,96.0482766 Z M166.460225,116.395064 C165.295466,117.559823 164.093265,118.44018 162.853586,119.03616 C161.613906,119.632141 160.378746,119.953076 159.148069,119.998974 C157.917391,120.044872 156.707547,119.813412 155.518502,119.304585 C154.329456,118.795758 153.203198,118.009606 152.139696,116.946103 C151.309417,116.115825 150.539696,115.187699 149.830509,114.161697 C149.121322,113.135696 148.514654,112.025859 148.010487,110.832154 L166.935396,91.9072449 L169.370245,94.3420939 L163.933177,99.7791617 L161.221501,102.266944 C162.862299,102.025491 164.27484,102.110227 165.459167,102.521154 C166.643494,102.932081 167.692761,103.594654 168.607001,104.508893 C169.409292,105.311185 169.945896,106.183234 170.216828,107.125068 C170.487761,108.066901 170.523297,109.048208 170.323438,110.069016 C170.123579,111.089824 169.695314,112.133792 169.038629,113.200951 C168.381945,114.26811 167.522486,115.332804 166.460225,116.395064 Z M266.419724,20.1863729 C265.277206,23.1566759 263.582691,25.7650762 261.336175,28.0115931 C260.329823,29.0179448 259.183597,29.9589361 257.897464,30.8345951 C256.61133,31.7102541 255.154994,32.4669275 253.528413,33.1046378 C251.901832,33.7423481 250.088718,34.2261041 248.089016,34.5559203 C246.089314,34.8857365 243.868088,35.0033114 241.425271,34.9086485 L241.451574,32.0556817 C245.069111,32.076443 248.304019,31.5562244 251.156395,30.4950104 C254.008772,29.4337964 256.506501,27.8316352 258.649657,25.6884786 C263.085059,21.2530764 265.268006,15.4598728 265.198562,8.30869408 L268.16341,8.28245644 C268.171448,8.48924112 268.177866,8.6949634 268.182664,8.8996233 L269.424235,8.8996233 L269.424235,25.9187093 L266.419724,25.9187093 L266.419724,20.1863729 Z M163.854301,114.016091 C162.838631,115.031761 161.874092,115.767744 160.960653,116.224062 C160.047215,116.680381 159.189606,116.922287 158.3878,116.949789 C157.585993,116.977291 156.842365,116.825352 156.156893,116.493966 C155.47142,116.162581 154.848825,115.717026 154.289086,115.157287 C153.841296,114.709497 153.423768,114.184813 153.03649,113.58322 C152.649213,112.981626 152.310871,112.34977 152.021455,111.687631 L158.828273,104.880813 C159.81649,104.750862 160.688188,104.686107 161.443393,104.686549 C162.198598,104.68699 162.860591,104.743317 163.429391,104.855532 C163.998191,104.967747 164.490096,105.133524 164.905121,105.352869 C165.320146,105.572214 165.681581,105.835811 165.989437,106.143667 C166.493201,106.647432 166.803529,107.204685 166.92043,107.815443 C167.037331,108.426202 166.993419,109.067159 166.788694,109.738332 C166.583969,110.409506 166.227757,111.10622 165.720047,111.828496 C165.212338,112.550772 164.590429,113.279963 163.854301,114.016091 Z M269.424235,69.6223628 L269.424235,86.6414488 L266.419724,86.6414488 L266.419724,69.6223628 L269.424235,69.6223628 Z M269.424235,39.2609931 L269.424235,56.280079 L266.419724,56.280079 L266.419724,39.2609931 L269.424235,39.2609931 Z M173.617862,91.6412882 L171.322947,89.346373 L199.947921,60.7213991 L202.242836,63.0163142 L173.617862,91.6412882 Z M207.369652,69.005196 C207.69149,77.2846679 205.415768,83.860981 200.542416,88.7343326 C199.536065,89.7406844 198.389839,90.6816757 197.103705,91.5573347 C195.817572,92.4329937 194.361236,93.189667 192.734655,93.8273773 C191.108074,94.4650877 189.29496,94.9488437 187.295258,95.2786599 C185.295556,95.608476 183.07433,95.7260509 180.631513,95.6313881 L180.657816,92.7784213 C184.275353,92.7991825 187.510261,92.278964 190.362637,91.21775 C193.215013,90.156536 195.712742,88.5543747 197.855899,86.4112182 C202.291301,81.9758159 204.474248,76.1826124 204.404804,69.0314336 L207.369652,69.005196 Z M204.014741,61.2799184 L201.719826,58.9850033 L230.3448,30.3600293 L232.639715,32.6549445 L204.014741,61.2799184 Z M237.766531,38.6438262 C238.08837,46.9232981 235.812647,53.4996112 230.939295,58.3729628 C229.932944,59.3793146 228.786718,60.3203059 227.500584,61.1959649 C226.214451,62.0716239 224.758115,62.8282972 223.131534,63.4660076 C221.504953,64.1037179 219.691839,64.5874739 217.692137,64.9172901 C215.692435,65.2471063 213.471209,65.3646812 211.028392,65.2700183 L211.054695,62.4170515 C214.672232,62.4378128 217.90714,61.9175942 220.759516,60.8563802 C223.611893,59.7951662 226.109622,58.193005 228.252778,56.0498484 C232.68818,51.6144462 234.871127,45.8212426 234.801683,38.6700639 L237.766531,38.6438262 Z M234.41162,30.9185486 L232.116705,28.6236335 L260.741679,-0.00134044843 L263.036594,2.29357469 L234.41162,30.9185486 Z" transform="translate(-148)" fill="#0085CA" fill-rule="evenodd"/></svg>