<?xml version="1.0" standalone="no"?>
<!DOCTYPE svg PUBLIC "-//W3C//DTD SVG 20010904//EN"
 "http://www.w3.org/TR/2001/REC-SVG-20010904/DTD/svg10.dtd">
<svg version="1.0" xmlns="http://www.w3.org/2000/svg"
 width="800.000000pt" height="800.000000pt" viewBox="0 0 800.000000 800.000000"
 preserveAspectRatio="xMidYMid meet">
<metadata>
Created by potrace 1.11, written by Peter Selinger 2001-2013
</metadata>
<g transform="translate(0.000000,800.000000) scale(0.100000,-0.100000)"
fill="#000000" stroke="none">
<path d="M5365 7990 c-22 -4 -58 -11 -80 -14 -52 -9 -163 -50 -245 -91 -144
-72 -283 -198 -385 -350 -31 -46 -107 -195 -99 -195 3 0 2 -6 -4 -13 -13 -15
-58 -168 -67 -228 -17 -106 -21 -164 -19 -253 2 -92 10 -172 19 -198 2 -7 6
-29 9 -49 3 -20 10 -49 16 -65 6 -16 12 -31 12 -34 5 -40 61 -168 109 -246
l19 -32 -28 -23 c-16 -13 -41 -33 -56 -44 -37 -26 -145 -110 -176 -137 -13
-11 -36 -28 -50 -37 -14 -9 -34 -24 -45 -33 -11 -9 -105 -82 -210 -162 -104
-80 -194 -149 -200 -154 -5 -4 -37 -28 -70 -52 -33 -25 -69 -53 -80 -62 -28
-23 -169 -130 -195 -148 -13 -8 -28 -20 -35 -27 -7 -7 -62 -49 -121 -94 -60
-46 -131 -100 -158 -121 -48 -38 -60 -39 -86 -7 -3 4 -42 31 -87 62 -71 47
-182 101 -233 112 -8 2 -40 10 -70 18 -131 35 -326 39 -470 9 -255 -54 -452
-180 -615 -394 -38 -50 -161 -278 -150 -278 3 0 1 -9 -5 -21 -6 -11 -13 -28
-15 -37 -2 -9 -11 -46 -20 -82 -8 -36 -19 -85 -23 -110 -9 -59 -9 -302 1 -360
4 -25 10 -63 13 -84 9 -60 60 -207 96 -278 75 -149 180 -275 311 -370 29 -21
57 -41 62 -46 53 -39 225 -110 332 -136 154 -38 369 -40 532 -5 31 7 47 6 57
-2 8 -7 12 -14 10 -17 -3 -3 4 -17 15 -33 20 -29 47 -87 47 -103 0 -5 4 -12 9
-15 6 -3 78 -141 162 -306 84 -165 158 -306 163 -312 6 -7 7 -13 3 -13 -5 0
-2 -8 6 -17 8 -10 39 -67 69 -128 30 -60 57 -112 60 -115 3 -3 45 -86 95 -185
49 -99 106 -210 127 -247 20 -38 35 -68 32 -68 -2 0 8 -19 22 -42 14 -22 27
-46 28 -52 1 -6 6 -18 11 -26 5 -8 23 -43 40 -78 l32 -63 -67 -67 c-139 -140
-208 -298 -214 -492 -2 -54 14 -174 28 -215 1 -5 6 -23 11 -39 18 -64 84 -172
154 -248 131 -143 337 -230 527 -222 108 4 168 16 233 45 24 10 48 19 53 19 4
0 39 19 76 42 142 91 247 226 301 389 42 129 43 273 2 419 -53 188 -213 369
-391 444 -25 10 -54 22 -65 27 -99 41 -314 43 -423 5 -47 -17 -32 -37 -173
239 -59 116 -141 275 -182 355 -41 80 -117 228 -169 330 -258 505 -362 708
-380 738 -11 17 -16 32 -12 32 4 0 1 8 -7 18 -32 38 -43 70 -29 87 7 8 19 15
26 15 8 0 14 3 14 8 0 4 13 13 29 20 62 28 271 205 271 230 0 4 -60 68 -134
141 l-134 134 -59 -50 c-109 -93 -227 -159 -315 -177 -102 -21 -133 -24 -210
-24 -48 0 -116 6 -150 14 -69 16 -198 72 -198 85 0 5 -6 9 -13 9 -26 0 -146
140 -182 213 -43 87 -78 214 -61 220 6 2 323 3 705 3 l693 -1 88 87 88 86 -3
65 c-4 76 -22 209 -35 252 -5 17 -19 62 -31 100 -19 65 -94 234 -108 245 -3 3
-12 15 -19 28 -15 28 -22 21 123 132 61 46 115 88 120 92 6 5 87 67 180 139
94 71 177 135 185 142 9 6 33 25 55 42 22 16 45 33 50 38 18 14 341 261 370
282 15 11 32 25 39 31 6 5 47 37 91 69 44 32 82 61 85 64 3 4 40 33 82 65 l77
58 63 -56 c35 -31 69 -56 76 -56 6 0 12 -3 12 -7 0 -16 149 -93 247 -127 142
-50 210 -60 393 -60 134 0 186 4 265 21 17 4 32 7 35 8 172 37 399 171 517
306 l41 48 -133 131 c-73 73 -136 132 -140 132 -5 0 -62 -45 -98 -77 -54 -49
-204 -129 -261 -139 -14 -3 -29 -7 -33 -9 -28 -17 -180 -26 -275 -16 -178 19
-347 126 -438 276 -37 62 -85 195 -85 237 l0 28 701 0 702 0 87 87 87 86 -6
90 c-3 50 -8 101 -11 115 -2 14 -7 36 -10 50 -3 14 -7 36 -10 49 -6 33 -34
132 -44 156 -69 169 -146 291 -244 390 -69 69 -88 84 -166 132 -79 50 -216
104 -296 118 -16 2 -41 8 -55 11 -39 9 -290 12 -335 4z m255 -405 c10 -3 29
-8 42 -10 13 -3 52 -19 88 -37 80 -39 165 -123 213 -210 54 -95 107 -297 80
-298 -11 -1 -967 -1 -1034 0 l-56 0 9 53 c14 80 46 165 91 242 43 74 130 166
181 192 17 9 33 19 36 23 7 9 105 38 160 48 48 9 159 7 190 -3z m-2959 -2673
c167 -60 278 -186 337 -383 11 -36 23 -86 27 -111 l7 -45 -552 -1 -551 0 6 46
c3 25 10 53 15 62 5 10 12 31 15 48 6 36 65 152 101 200 78 102 179 169 299
198 73 18 228 10 296 -14z"/>
</g>
</svg>
