<svg width="16" height="16" viewBox="0 0 16 16" fill="none" xmlns="http://www.w3.org/2000/svg">
<path d="M6.54068 12.0574C3.49847 12.0574 1.02344 9.5824 1.02344 6.54019C1.02344 3.49798 3.49847 1.02295 6.54068 1.02295C9.58288 1.02295 12.0579 3.49798 12.0579 6.54019C12.0579 9.5824 9.58288 12.0574 6.54068 12.0574ZM6.54068 2.1264C4.10702 2.1264 2.12689 4.10654 2.12689 6.54019C2.12689 8.97384 4.10702 10.954 6.54068 10.954C8.97433 10.954 10.9545 8.97384 10.9545 6.54019C10.9545 4.10654 8.97488 2.1264 6.54068 2.1264Z" fill="white"/>
<path d="M14.4255 14.9771C14.3531 14.9772 14.2813 14.9629 14.2144 14.9352C14.1474 14.9075 14.0866 14.8668 14.0354 14.8155L9.79048 10.5705C9.73925 10.5193 9.69862 10.4585 9.6709 10.3915C9.64317 10.3246 9.62891 10.2529 9.62891 10.1804C9.62891 10.108 9.64317 10.0362 9.6709 9.96932C9.69862 9.90239 9.73925 9.84158 9.79048 9.79036C9.8417 9.73913 9.90252 9.6985 9.96944 9.67078C10.0364 9.64305 10.1081 9.62878 10.1805 9.62878C10.253 9.62878 10.3247 9.64305 10.3917 9.67078C10.4586 9.6985 10.5194 9.73913 10.5706 9.79036L14.8156 14.0353C14.893 14.1124 14.9458 14.2107 14.9672 14.3178C14.9886 14.4249 14.9777 14.5359 14.936 14.6369C14.8942 14.7378 14.8233 14.824 14.7324 14.8846C14.6416 14.9451 14.5347 14.9774 14.4255 14.9771Z" fill="white"/>
</svg>
