<?xml version="1.0" encoding="UTF-8"?>
<svg width="24px" height="24px" viewBox="0 0 24 24" version="1.1" xmlns="http://www.w3.org/2000/svg" xmlns:xlink="http://www.w3.org/1999/xlink">
    <!-- Generator: Sketch 49.3 (51167) - http://www.bohemiancoding.com/sketch -->
    <title>Small</title>
    <desc>Created with Sketch.</desc>
    <defs></defs>
    <g id="-" stroke="none" stroke-width="1" fill="none" fill-rule="evenodd">
        <g id="Registripidajate-nimekiri" transform="translate(-243.000000, -520.000000)">
            <g id="List-Grid" transform="translate(50.000000, 500.000000)">
                <g id="SP">
                    <g id="Small" transform="translate(193.000000, 20.000000)">
                        <circle id="Oval-2" fill="#0085CA" cx="12" cy="12" r="12"></circle>
                        <path d="M6,11.5744681 L11.0677291,8.19639935 L11.0677291,10.8412439 L9.29880478,12.0851064 L11.0677291,13.2242226 L11.0677291,16 L6,12.7266776 L6,11.5744681 Z M18,13.2504092 L18,15.4762684 L12.4661355,15.4762684 L12.4661355,13.2504092 L14.1633466,13.2504092 L14.1633466,10.6448445 C14.0916331,10.7495914 13.9800804,10.8521544 13.8286853,10.9525368 C13.6772901,11.0529192 13.5079691,11.1467535 13.3207171,11.2340426 C13.1334652,11.3213316 12.9442241,11.3911618 12.752988,11.4435352 C12.561752,11.4959086 12.390439,11.5220949 12.2390438,11.5220949 L12.2390438,9.24386252 C12.3505982,9.24386252 12.5059751,9.19803646 12.7051793,9.10638298 C12.9043835,9.01472949 13.1035847,8.90561984 13.3027888,8.77905074 C13.501993,8.65248164 13.6832661,8.51718566 13.8466135,8.37315876 C14.009961,8.22913185 14.1155376,8.10474684 14.1633466,8 L16.4820717,8 L16.4820717,13.2504092 L18,13.2504092 Z" id="&lt;1" fill="#FFFFFF"></path>
                    </g>
                </g>
            </g>
        </g>
    </g>
</svg>