<svg width="61" height="50" viewBox="0 0 61 50" xmlns="http://www.w3.org/2000/svg"><path d="M366.733187,0 L368.224909,0.734910838 L363.713305,9.79042177 L362.222704,9.05774811 L366.733187,0 Z M372.844035,0 L374.335757,0.734910838 L369.823592,9.79042177 L368.334112,9.05718882 L372.844035,0 Z M386.665589,0.734910838 L388.159553,0.000559292875 L392.664431,9.05718882 L391.17383,9.79042177 L386.665589,0.734910838 Z M392.775427,0.734910838 L394.268831,0.000559292875 L398.779875,9.0583074 L397.284229,9.78986248 L392.775427,0.734910838 Z M356.169261,22.7105346 L356.169261,20.9744895 L361.988715,20.9744895 L361.988715,22.7105346 L356.169261,22.7105346 Z M362.223433,14.1373579 L363.712912,13.402447 L368.220593,22.4596358 L366.734477,23.1928688 L362.223433,14.1373579 Z M368.335121,14.1381968 L369.823479,13.4021674 L374.335645,22.4604748 L372.839998,23.1931484 L368.335121,14.1381968 Z M376.192645,21.2194598 C375.979062,20.7541281 375.813688,20.2692212 375.703253,19.7736877 C375.590014,19.272002 375.531153,18.7574526 375.531153,18.2417845 C375.531153,17.728913 375.590014,17.2143635 375.703253,16.7104407 C375.813688,16.2137886 375.979062,15.7272038 376.192085,15.2652279 C376.407911,14.8043705 376.676992,14.3658849 376.994285,13.9587197 C377.313259,13.548758 377.682125,13.1785062 378.094717,12.853557 L378.346981,12.6544487 L379.558971,13.8658771 L379.234951,14.1181182 C378.930552,14.3535805 378.650259,14.6337862 378.400237,14.9520239 C378.166472,15.2551606 377.956813,15.5968885 377.780228,15.9660218 C377.619339,16.3111055 377.490965,16.6869504 377.401271,17.0767775 C377.314941,17.4626896 377.270654,17.8558725 377.270654,18.2417845 C377.270654,18.6282559 377.314941,19.0197609 377.401271,19.4051137 C377.490965,19.8005338 377.619339,20.1780565 377.78191,20.5270552 C377.955131,20.8861213 378.164791,21.225612 378.402479,21.5360196 C378.653062,21.8536979 378.926068,22.1283107 379.235512,22.3704845 L379.557289,22.6227256 L378.348663,23.8296797 L378.096399,23.63169 C377.684928,23.312893 377.316062,22.9420819 376.994845,22.5310016 C376.678114,22.124955 376.409592,21.6836729 376.192645,21.2194598 Z M382.545274,14.9582879 C382.301979,14.6456432 382.021686,14.3665561 381.716166,14.1305345 L381.391025,13.8805306 L382.603014,12.6663057 L382.85696,12.8642954 C383.267871,13.1870074 383.635055,13.5589372 383.950105,13.9694581 C384.270761,14.3894871 384.539843,14.8279727 384.74782,15.2731698 C384.962525,15.7289935 385.130701,16.215019 385.247864,16.7178233 C385.361103,17.225102 385.419404,17.7413293 385.419404,18.2553194 C385.419404,18.7687503 385.361103,19.2832997 385.247864,19.7833076 C385.132944,20.2816375 384.965889,20.7693409 384.74782,21.233554 C384.538161,21.6821069 384.26964,22.1222704 383.950105,22.5383843 C383.634494,22.9500238 383.26731,23.3202757 382.85696,23.6413098 L382.603575,23.8404181 L381.393828,22.6373791 L381.712802,22.385138 C382.027291,22.1345748 382.300858,21.859962 382.548077,21.5450801 C382.79025,21.2307575 382.999349,20.8895889 383.166965,20.5349972 C383.330096,20.1921507 383.45847,19.8157466 383.549285,19.4180893 C383.635055,19.0299401 383.679341,18.6389943 383.679341,18.2553194 C383.679341,17.8638144 383.637297,17.4812581 383.549285,17.0852787 C383.45847,16.6937737 383.330096,16.3190475 383.166404,15.9734045 C382.998789,15.6176942 382.794735,15.2854743 382.545274,14.9582879 Z M386.665364,22.4595799 L391.174727,13.4023911 L392.664207,14.1373019 L388.156526,23.1933722 L386.665364,22.4595799 Z M398.774886,14.1381968 L394.267205,23.1931484 L392.775483,22.4593562 L397.285406,13.4021674 L398.774886,14.1381968 Z M398.943174,22.7105346 L398.943174,20.9744895 L404.763189,20.9744895 L404.763189,22.7105346 L398.943174,22.7105346 Z M350,35.8621388 L354.508241,26.80495 L356.004448,27.5393015 L351.493964,36.5931346 L350,35.8621388 Z M362.222872,35.8612998 L366.734477,26.804111 L368.220593,27.5401404 L363.712912,36.5939735 L362.222872,35.8612998 Z M368.334056,35.8612998 L372.840615,26.804111 L374.335701,27.5390219 L369.823535,36.5939735 L368.334056,35.8612998 Z M386.665364,27.5390778 L388.156526,26.804167 L392.664207,35.8613558 L391.174166,36.5934701 L386.665364,27.5390778 Z M392.775427,27.5390778 L394.267149,26.804167 L398.77483,35.8613558 L397.28535,36.5934701 L392.775427,27.5390778 Z M406.491198,26.8047262 L411,35.8619151 L409.502672,36.5929109 L404.994431,27.5390778 L406.491198,26.8047262 Z M358.210919,49.5146456 L358.210919,39.6459229 L359.950981,39.6459229 L359.950981,49.5146456 L358.210919,49.5146456 Z M368.335121,40.941357 L369.823479,40.2064462 L374.335645,49.2602792 L372.842241,49.9985458 L368.335121,40.941357 Z M374.50326,49.5146456 L374.50326,47.777482 L380.322154,47.777482 L380.322154,49.5146456 L374.50326,49.5146456 Z M380.61422,49.5146456 L380.61422,47.777482 L386.431992,47.777482 L386.431992,49.5146456 L380.61422,49.5146456 Z M386.66643,49.2594962 L391.174671,40.2062225 L392.66415,40.9411333 L388.155909,50 L386.66643,49.2594962 Z M400.980908,49.5146456 L400.980908,39.6459229 L402.726576,39.6459229 L402.726576,49.5146456 L400.980908,49.5146456 Z" transform="translate(-350)" fill="#FFF" fill-rule="evenodd"/></svg>