<svg width="122" height="100" viewBox="0 0 122 100" xmlns="http://www.w3.org/2000/svg"><path d="M182.466374,20 L185.449819,21.4698217 L176.42661,39.5808435 L173.445408,38.1154962 L182.466374,20 Z M194.688069,20 L197.671513,21.4698217 L188.647183,39.5808435 L185.668223,38.1143776 L194.688069,20 Z M222.331177,21.4698217 L225.319106,20.0011186 L234.328862,38.1143776 L231.34766,39.5808435 L222.331177,21.4698217 Z M234.550854,21.4698217 L237.537662,20.0011186 L246.55975,38.1166148 L243.568457,39.579725 L234.550854,21.4698217 Z M161.338521,65.4210692 L161.338521,61.9489791 L172.977429,61.9489791 L172.977429,65.4210692 L161.338521,65.4210692 Z M173.446865,48.2747157 L176.425825,46.804894 L185.441186,64.9192717 L182.468953,66.3857376 L173.446865,48.2747157 Z M185.670242,48.2763936 L188.646959,46.8043347 L197.671289,64.9209495 L194.679997,66.3862969 L185.670242,48.2763936 Z M201.385291,62.4389196 C200.958123,61.5082563 200.627377,60.5384424 200.406506,59.5473755 C200.180028,58.544004 200.062305,57.5149052 200.062305,56.4835691 C200.062305,55.457826 200.180028,54.4287271 200.406506,53.4208813 C200.627377,52.4275772 200.958123,51.4544076 201.384169,50.5304557 C201.815821,49.6087411 202.353985,48.7317698 202.98857,47.9174394 C203.626518,47.0975161 204.36425,46.3570123 205.189434,45.707114 L205.693963,45.3088975 L208.117941,47.7317542 L207.469902,48.2362364 C206.861105,48.707161 206.300518,49.2675724 205.800474,49.9040477 C205.332945,50.5103212 204.913625,51.1937771 204.560456,51.9320437 C204.238679,52.6222111 203.98193,53.3739007 203.802542,54.153555 C203.629881,54.9253791 203.541308,55.7117449 203.541308,56.4835691 C203.541308,57.2565118 203.629881,58.0395219 203.802542,58.8102275 C203.98193,59.6010676 204.238679,60.356113 204.563819,61.0541105 C204.910262,61.7722425 205.329581,62.4512241 205.804959,63.0720392 C206.306124,63.7073959 206.852136,64.2566215 207.471024,64.7409691 L208.114578,65.2454513 L205.697326,67.6593593 L205.192798,67.26338 C204.369856,66.6257861 203.632123,65.8841637 202.989691,65.0620032 C202.356227,64.24991 201.819185,63.3673458 201.385291,62.4389196 Z M214.090548,49.9165759 C213.603958,49.2912864 213.043371,48.7331122 212.432331,48.261069 L211.78205,47.7610611 L214.206029,45.3326115 L214.71392,45.7285908 C215.535741,46.3740148 216.27011,47.1178743 216.90021,47.9389163 C217.541522,48.7789742 218.079685,49.6559454 218.495641,50.5463397 C218.92505,51.457987 219.261403,52.4300381 219.495728,53.4356466 C219.722205,54.4502039 219.838807,55.4826586 219.838807,56.5106389 C219.838807,57.5375006 219.722205,58.5665995 219.495728,59.5666151 C219.265887,60.563275 218.931777,61.5386818 218.495641,62.467108 C218.076322,63.3642138 217.539279,64.2445407 216.90021,65.0767685 C216.268989,65.9000477 215.53462,66.6405514 214.71392,67.2826196 L214.20715,67.6808362 L211.787656,65.2747582 L212.425604,64.770276 C213.054583,64.2691496 213.601716,63.719924 214.096154,63.0901602 C214.580501,62.4615151 214.998699,61.7791777 215.33393,61.0699944 C215.660191,60.3843013 215.91694,59.6314931 216.098571,58.8361786 C216.27011,58.0598801 216.358683,57.2779887 216.358683,56.5106389 C216.358683,55.7276288 216.274595,54.9625162 216.098571,54.1705575 C215.91694,53.3875475 215.660191,52.638095 215.332809,51.946809 C214.997578,51.2353885 214.58947,50.5709485 214.090548,49.9165759 Z M222.330729,64.9191598 L231.349453,46.8047822 L234.328413,48.2746039 L225.313052,66.3867443 L222.330729,64.9191598 Z M246.549771,48.2763936 L237.53441,66.3862969 L234.550966,64.9187124 L243.570812,46.8043347 L246.549771,48.2763936 Z M246.886348,65.4210692 L246.886348,61.9489791 L258.526377,61.9489791 L258.526377,65.4210692 L246.886348,65.4210692 Z M149,91.7242776 L158.016482,73.6098999 L161.008896,75.078603 L151.987929,93.1862691 L149,91.7242776 Z M173.445744,91.7225997 L182.468953,73.6082221 L185.441186,75.0802809 L176.425825,93.187947 L173.445744,91.7225997 Z M185.668111,91.7225997 L194.68123,73.6082221 L197.671401,75.0780437 L188.647071,93.187947 L185.668111,91.7225997 Z M222.330729,75.0781556 L225.313052,73.6083339 L234.328413,91.7227115 L231.348332,93.1869403 L222.330729,75.0781556 Z M234.550854,75.0781556 L237.534298,73.6083339 L246.549659,91.7227115 L243.5707,93.1869403 L234.550854,75.0781556 Z M261.982397,73.6094525 L271,91.7238301 L268.005344,93.1858217 L258.988862,75.0781556 L261.982397,73.6094525 Z M165.421837,119.029291 L165.421837,99.2918457 L168.901962,99.2918457 L168.901962,119.029291 L165.421837,119.029291 Z M185.670242,101.882714 L188.646959,100.412892 L197.671289,118.520558 L194.684481,119.997092 L185.670242,101.882714 Z M198.00652,119.029291 L198.00652,115.554964 L209.644308,115.554964 L209.644308,119.029291 L198.00652,119.029291 Z M210.228439,119.029291 L210.228439,115.554964 L221.863984,115.554964 L221.863984,119.029291 L210.228439,119.029291 Z M222.332859,118.518992 L231.349341,100.412445 L234.328301,101.882267 L225.311819,120 L222.332859,118.518992 Z M250.961816,119.029291 L250.961816,99.2918457 L254.453152,99.2918457 L254.453152,119.029291 L250.961816,119.029291 Z" transform="translate(-149 -20)" fill="#FFFFFF" fill-rule="evenodd"/></svg>
