<svg width="584" height="389" viewBox="0 0 584 389" fill="none" xmlns="http://www.w3.org/2000/svg">
<path fill-rule="evenodd" clip-rule="evenodd" d="M158.402 50.3837L216.856 -67L236.188 -57.4759L177.72 59.8788L158.402 50.3837ZM237.602 50.3765L296.048 -67L315.38 -57.4759L256.904 59.8788L237.602 50.3765ZM475.164 -57.4758L533.589 59.8789L552.906 50.3766L494.525 -66.9926L475.164 -57.4758ZM612.775 59.8716L554.344 -57.4758L573.698 -66.9926L632.158 50.3911L612.775 59.8716ZM79.9531 227.317H155.37V204.818H79.9531V227.317ZM216.875 233.567L158.414 116.213L177.717 106.689L236.134 224.065L216.875 233.567ZM237.609 116.224L295.99 233.571L315.373 224.076L256.898 106.685L237.609 116.224ZM349.84 224.99C345.735 219.728 342.255 214.009 339.444 207.993C336.676 201.963 334.533 195.679 333.101 189.257C331.634 182.755 330.871 176.087 330.871 169.404C330.871 162.758 331.634 156.089 333.101 149.559C334.533 143.122 336.676 136.816 339.436 130.829C342.233 124.857 345.721 119.174 349.833 113.898C353.966 108.585 358.747 103.787 364.094 99.5754L367.363 96.9951L383.07 112.695L378.87 115.963C374.926 119.015 371.293 122.646 368.053 126.77C365.023 130.699 362.306 135.128 360.018 139.911C357.933 144.383 356.269 149.254 355.107 154.306C353.988 159.307 353.414 164.403 353.414 169.404C353.414 174.413 353.988 179.486 355.107 184.48C356.269 189.605 357.933 194.497 360.04 199.02C362.285 203.673 365.002 208.073 368.082 212.096C371.329 216.213 374.867 219.771 378.878 222.91L383.048 226.179L367.385 241.82L364.115 239.254C358.783 235.123 354.003 230.317 349.84 224.99ZM421.771 126.852C425.004 131.092 427.648 135.397 429.82 140.007C431.942 144.486 433.606 149.343 434.782 154.416C435.923 159.548 436.468 164.506 436.468 169.579C436.468 174.552 435.894 179.618 434.782 184.648C433.606 189.802 431.942 194.68 429.828 199.123C427.656 203.718 424.946 208.139 421.807 212.213C418.603 216.294 415.058 219.852 410.983 223.1L406.849 226.369L422.527 241.959L425.81 239.379C431.128 235.219 435.887 230.42 439.977 225.086C444.118 219.693 447.598 213.989 450.315 208.176C453.141 202.16 455.306 195.839 456.795 189.381C458.263 182.901 459.018 176.233 459.018 169.579C459.018 162.918 458.263 156.228 456.795 149.654C455.277 143.138 453.097 136.839 450.315 130.932C447.62 125.163 444.132 119.48 439.977 114.037C435.894 108.717 431.135 103.897 425.81 99.7145L422.519 97.1486L406.812 112.884L411.026 116.124C414.986 119.183 418.618 122.8 421.771 126.852ZM494.489 233.574L475.164 224.064L533.603 106.688L552.906 116.212L494.489 233.574ZM632.093 116.224L612.79 106.685L554.344 224.062L573.676 233.571L632.093 116.224ZM709.706 227.317H634.281V204.818H709.706V227.317ZM0 397.755L19.361 407.228L77.8145 289.895L58.4245 280.378L0 397.755ZM177.712 407.239L158.402 397.744L216.87 280.367L236.13 289.906L177.712 407.239ZM237.598 397.744L256.901 407.239L315.376 289.892L296 280.367L237.598 397.744ZM533.596 407.232L475.164 289.892L494.489 280.368L552.906 397.745L533.596 407.232ZM554.344 289.892L612.79 407.232L632.093 397.745L573.676 280.368L554.344 289.892ZM712.699 289.892L732.097 280.375L790.528 397.752L771.124 407.225L712.699 289.892ZM106.41 574.684H128.96V446.791H106.41V574.684ZM296.019 580.955L237.609 463.579L256.898 454.055L315.373 571.388L296.019 580.955ZM317.547 574.684H392.957V552.171H317.547V574.684ZM472.138 574.684H396.742V552.171H472.138V574.684ZM475.18 571.378L494.483 580.974L552.907 463.576L533.604 454.052L475.18 571.378ZM683.31 574.684H660.688V446.791H683.31V574.684Z" fill="#0085CA"/>
</svg>
