<svg width="60" height="19" viewBox="0 0 60 19" fill="none" xmlns="http://www.w3.org/2000/svg">
<path d="M0.30807 3.136C0.30807 2.99733 0.30303 2.85867 0.29295 2.72C0.28791 2.58133 0.28035 2.44267 0.27027 2.304H0.807031V2.872H0.822151C0.943111 2.65333 1.10943 2.488 1.32111 2.376C1.53783 2.264 1.75203 2.208 1.96371 2.208C2.05947 2.208 2.16027 2.21867 2.26611 2.24C2.37699 2.26133 2.48283 2.30133 2.58363 2.36C2.68443 2.41333 2.77767 2.49067 2.86335 2.592C2.95407 2.69333 3.02967 2.824 3.09015 2.984C3.19095 2.744 3.34971 2.55467 3.56643 2.416C3.78819 2.27733 4.01751 2.208 4.25439 2.208C4.70799 2.208 5.04315 2.336 5.25987 2.592C5.47659 2.84267 5.58496 3.20267 5.58496 3.672V6.048H5.08599V3.864C5.08599 3.48533 5.02299 3.19467 4.89699 2.992C4.77099 2.78933 4.53663 2.688 4.19391 2.688C4.00743 2.688 3.85119 2.728 3.72519 2.808C3.59919 2.88267 3.49587 2.984 3.41523 3.112C3.33963 3.24 3.28419 3.38667 3.24891 3.552C3.21363 3.712 3.19599 3.88 3.19599 4.056V6.048H2.69703V3.864C2.69703 3.48533 2.63403 3.19467 2.50803 2.992C2.38203 2.78933 2.14767 2.688 1.80495 2.688C1.77471 2.688 1.70415 2.69867 1.59327 2.72C1.48743 2.74133 1.37655 2.8 1.26063 2.896C1.14471 2.992 1.03887 3.136 0.943111 3.328C0.852391 3.52 0.807031 3.78667 0.807031 4.128V6.048H0.30807V3.136Z" fill="#009DE1"/>
<path d="M8.75685 4.184C8.63085 4.184 8.47209 4.192 8.28057 4.208C8.09409 4.21867 7.91265 4.25067 7.73625 4.304C7.56489 4.352 7.41621 4.42933 7.29021 4.536C7.16925 4.64267 7.10877 4.78933 7.10877 4.976C7.10877 5.09867 7.13145 5.20533 7.17681 5.296C7.22721 5.38133 7.29273 5.45333 7.37337 5.512C7.45401 5.56533 7.54221 5.60533 7.63797 5.632C7.73877 5.65333 7.83957 5.664 7.94037 5.664C8.12181 5.664 8.27805 5.632 8.40909 5.568C8.54517 5.504 8.65857 5.41867 8.74929 5.312C8.84001 5.2 8.90553 5.072 8.94585 4.928C8.99121 4.77867 9.01389 4.62133 9.01389 4.456V4.184H8.75685ZM9.01389 3.752V3.656C9.01389 3.01067 8.71149 2.688 8.10669 2.688C7.69341 2.688 7.33305 2.83467 7.02561 3.128L6.72321 2.752C7.05585 2.38933 7.55481 2.208 8.22009 2.208C8.39145 2.208 8.55525 2.23467 8.71149 2.288C8.87277 2.34133 9.01137 2.424 9.12729 2.536C9.24321 2.64267 9.33645 2.77867 9.40701 2.944C9.47757 3.10933 9.51285 3.30667 9.51285 3.536V5.208C9.51285 5.352 9.51789 5.504 9.52797 5.664C9.54309 5.81867 9.55821 5.94667 9.57333 6.048H9.08949C9.07437 5.95733 9.06177 5.85867 9.05169 5.752C9.04665 5.64533 9.04413 5.54133 9.04413 5.44H9.02901C8.88285 5.69067 8.70897 5.872 8.50737 5.984C8.31081 6.09067 8.06889 6.144 7.78161 6.144C7.62537 6.144 7.47417 6.12 7.32801 6.072C7.18185 6.02933 7.05081 5.96267 6.93489 5.872C6.82401 5.776 6.73329 5.66133 6.66273 5.528C6.59721 5.38933 6.56445 5.22933 6.56445 5.048C6.56445 4.744 6.63753 4.50667 6.78369 4.336C6.93489 4.16 7.12137 4.02933 7.34313 3.944C7.56993 3.85867 7.80933 3.80533 8.06133 3.784C8.31837 3.76267 8.55273 3.752 8.76441 3.752H9.01389Z" fill="#009DE1"/>
<path d="M10.9686 4.176C10.9686 4.384 10.9988 4.57867 11.0593 4.76C11.1248 4.94133 11.2155 5.09867 11.3314 5.232C11.4474 5.36533 11.586 5.472 11.7472 5.552C11.9136 5.62667 12.1 5.664 12.3067 5.664C12.5083 5.664 12.6948 5.62667 12.8661 5.552C13.0425 5.472 13.1937 5.36533 13.3197 5.232C13.4457 5.09867 13.544 4.94133 13.6146 4.76C13.6851 4.57867 13.7204 4.384 13.7204 4.176C13.7204 3.968 13.6851 3.77333 13.6146 3.592C13.544 3.41067 13.4457 3.25333 13.3197 3.12C13.1937 2.98667 13.0425 2.88267 12.8661 2.808C12.6948 2.728 12.5083 2.688 12.3067 2.688C12.1 2.688 11.9136 2.728 11.7472 2.808C11.586 2.88267 11.4474 2.98667 11.3314 3.12C11.2155 3.25333 11.1248 3.41067 11.0593 3.592C10.9988 3.77333 10.9686 3.968 10.9686 4.176ZM14.1967 6.048H13.6977V5.424H13.6826C13.602 5.552 13.5062 5.66133 13.3953 5.752C13.2844 5.84267 13.1685 5.91733 13.0476 5.976C12.9266 6.03467 12.8006 6.07733 12.6696 6.104C12.5436 6.13067 12.4226 6.144 12.3067 6.144C12.0295 6.144 11.775 6.096 11.5431 6C11.3163 5.89867 11.1198 5.76 10.9534 5.584C10.7871 5.408 10.6561 5.2 10.5603 4.96C10.4696 4.72 10.4242 4.45867 10.4242 4.176C10.4242 3.89333 10.4696 3.632 10.5603 3.392C10.6561 3.152 10.7871 2.944 10.9534 2.768C11.1198 2.592 11.3163 2.456 11.5431 2.36C11.775 2.25867 12.0295 2.208 12.3067 2.208C12.4226 2.208 12.5436 2.22133 12.6696 2.248C12.8006 2.27467 12.9266 2.31733 13.0476 2.376C13.1685 2.43467 13.2844 2.50933 13.3953 2.6C13.5062 2.69067 13.602 2.8 13.6826 2.928H13.6977V0H14.1967V6.048Z" fill="#009DE1"/>
<path d="M18.0397 3.888C18.0397 3.53067 17.9389 3.24267 17.7373 3.024C17.5357 2.8 17.2534 2.688 16.8905 2.688C16.7292 2.688 16.573 2.72267 16.4218 2.792C16.2706 2.856 16.1371 2.944 16.0211 3.056C15.9102 3.168 15.8195 3.296 15.749 3.44C15.6834 3.584 15.6507 3.73333 15.6507 3.888H18.0397ZM15.6356 4.32C15.6507 4.50667 15.6935 4.68267 15.7641 4.848C15.8347 5.01333 15.9279 5.15733 16.0438 5.28C16.1597 5.39733 16.2933 5.49067 16.4445 5.56C16.5957 5.62933 16.7595 5.664 16.9359 5.664C17.203 5.664 17.4323 5.6 17.6239 5.472C17.8204 5.33867 17.9691 5.18667 18.0699 5.016L18.4555 5.352C18.2438 5.63467 18.0094 5.83733 17.7524 5.96C17.5004 6.08267 17.2282 6.144 16.9359 6.144C16.6738 6.144 16.4294 6.096 16.2026 6C15.9808 5.89867 15.7893 5.76 15.628 5.584C15.4667 5.408 15.3382 5.2 15.2424 4.96C15.1517 4.72 15.1064 4.45867 15.1064 4.176C15.1064 3.89333 15.1517 3.632 15.2424 3.392C15.3332 3.152 15.4592 2.944 15.6205 2.768C15.7817 2.592 15.9707 2.456 16.1875 2.36C16.4042 2.25867 16.6385 2.208 16.8905 2.208C17.1577 2.208 17.3971 2.25867 17.6087 2.36C17.8204 2.46133 17.9968 2.59733 18.1379 2.768C18.2841 2.93333 18.395 3.13067 18.4706 3.36C18.5462 3.584 18.584 3.824 18.584 4.08V4.32H15.6356Z" fill="#009DE1"/>
<path d="M24.8209 4.176C24.8209 3.968 24.7881 3.77333 24.7226 3.592C24.6621 3.41067 24.5739 3.25333 24.458 3.12C24.3421 2.98667 24.2009 2.88267 24.0346 2.808C23.8733 2.728 23.6894 2.688 23.4827 2.688C23.2761 2.688 23.0871 2.728 22.9157 2.808C22.7444 2.88267 22.5957 2.98667 22.4697 3.12C22.3437 3.25333 22.2454 3.41067 22.1749 3.592C22.1043 3.77333 22.069 3.968 22.069 4.176C22.069 4.384 22.1043 4.57867 22.1749 4.76C22.2454 4.94133 22.3437 5.09867 22.4697 5.232C22.5957 5.36533 22.7444 5.472 22.9157 5.552C23.0871 5.62667 23.2761 5.664 23.4827 5.664C23.6894 5.664 23.8733 5.62667 24.0346 5.552C24.2009 5.472 24.3421 5.36533 24.458 5.232C24.5739 5.09867 24.6621 4.94133 24.7226 4.76C24.7881 4.57867 24.8209 4.384 24.8209 4.176ZM21.5927 0H22.0917V2.928H22.1068C22.1875 2.8 22.2832 2.69067 22.3941 2.6C22.505 2.50933 22.6209 2.43467 22.7419 2.376C22.8628 2.31733 22.9863 2.27467 23.1123 2.248C23.2433 2.22133 23.3668 2.208 23.4827 2.208C23.7599 2.208 24.0119 2.25867 24.2387 2.36C24.4706 2.456 24.6697 2.592 24.836 2.768C25.0023 2.944 25.1308 3.152 25.2215 3.392C25.3173 3.632 25.3652 3.89333 25.3652 4.176C25.3652 4.45867 25.3173 4.72 25.2215 4.96C25.1308 5.2 25.0023 5.408 24.836 5.584C24.6697 5.76 24.4706 5.89867 24.2387 6C24.0119 6.096 23.7599 6.144 23.4827 6.144C23.3668 6.144 23.2433 6.13067 23.1123 6.104C22.9863 6.07733 22.8628 6.03467 22.7419 5.976C22.6209 5.91733 22.505 5.84267 22.3941 5.752C22.2832 5.66133 22.1875 5.552 22.1068 5.424H22.0917V6.048H21.5927V0Z" fill="#009DE1"/>
<path d="M27.5298 5.4L28.6109 2.304H29.2157L27.4467 7.024C27.3408 7.312 27.2047 7.54133 27.0384 7.712C26.8771 7.88267 26.6428 7.968 26.3353 7.968C26.2597 7.968 26.1816 7.96533 26.101 7.96C26.0254 7.95467 25.9498 7.93867 25.8742 7.912L25.9271 7.4C26.0329 7.45867 26.1589 7.488 26.3051 7.488C26.4815 7.488 26.6201 7.42933 26.7209 7.312C26.8217 7.19467 26.9099 7.02933 26.9855 6.816L27.2425 6.096L25.791 2.304H26.4185L27.5298 5.4Z" fill="#009DE1"/>
<path d="M2.82555 12.578C2.60505 12.2513 2.30895 12.088 1.93725 12.088C1.78605 12.088 1.638 12.128 1.4931 12.208C1.3482 12.288 1.27575 12.418 1.27575 12.598C1.27575 12.7447 1.3356 12.8513 1.4553 12.918C1.575 12.9847 1.7262 13.0413 1.9089 13.088C2.0916 13.1347 2.2869 13.1847 2.4948 13.238C2.709 13.2847 2.90745 13.3613 3.09015 13.468C3.27285 13.568 3.42405 13.708 3.54375 13.888C3.66345 14.068 3.7233 14.3147 3.7233 14.628C3.7233 14.9147 3.66345 15.158 3.54375 15.358C3.43035 15.5513 3.27915 15.708 3.09015 15.828C2.90745 15.948 2.69955 16.0347 2.46645 16.088C2.23335 16.1413 2.00025 16.168 1.76715 16.168C1.41435 16.168 1.0899 16.1147 0.793801 16.008C0.4977 15.9013 0.2331 15.708 0 15.428L0.756001 14.678C0.900901 14.8513 1.05525 14.9947 1.21905 15.108C1.38915 15.2147 1.5939 15.268 1.8333 15.268C1.9152 15.268 2.00025 15.258 2.08845 15.238C2.17665 15.218 2.25855 15.1847 2.33415 15.138C2.40975 15.0913 2.4696 15.0347 2.5137 14.968C2.5641 14.8947 2.5893 14.8113 2.5893 14.718C2.5893 14.5513 2.52945 14.428 2.40975 14.348C2.29005 14.268 2.13885 14.2047 1.95615 14.158C1.77345 14.1047 1.575 14.058 1.3608 14.018C1.1529 13.9713 0.957601 13.9013 0.774901 13.808C0.592201 13.708 0.441 13.5713 0.3213 13.398C0.2016 13.2247 0.14175 12.9847 0.14175 12.678C0.14175 12.4113 0.19215 12.1813 0.29295 11.988C0.40005 11.788 0.538651 11.6247 0.708751 11.498C0.878851 11.3713 1.07415 11.278 1.29465 11.218C1.51515 11.158 1.7388 11.128 1.9656 11.128C2.268 11.128 2.56725 11.1847 2.86335 11.298C3.15945 11.4047 3.39885 11.5913 3.58155 11.858L2.82555 12.578Z" fill="#009DE1"/>
<path d="M3.99108 11.248H5.22903L6.43863 14.608H6.45753L7.67658 11.248H8.83893L7.05288 16.048H5.84328L3.99108 11.248Z" fill="#009DE1"/>
<path d="M9.52457 11.248H10.6586V16.048H9.52457V11.248ZM9.36392 9.618C9.36392 9.42467 9.43007 9.258 9.56237 9.118C9.70097 8.97133 9.87422 8.898 10.0821 8.898C10.29 8.898 10.4633 8.968 10.6019 9.108C10.7468 9.24133 10.8192 9.41133 10.8192 9.618C10.8192 9.82467 10.7468 9.998 10.6019 10.138C10.4633 10.2713 10.29 10.338 10.0821 10.338C9.87422 10.338 9.70097 10.268 9.56237 10.128C9.43007 9.98133 9.36392 9.81133 9.36392 9.618Z" fill="#009DE1"/>
<path d="M11.9794 11.248H13.1134V16.048H11.9794V11.248ZM11.8187 9.618C11.8187 9.42467 11.8849 9.258 12.0172 9.118C12.1558 8.97133 12.329 8.898 12.5369 8.898C12.7448 8.898 12.9181 8.968 13.0567 9.108C13.2016 9.24133 13.274 9.41133 13.274 9.618C13.274 9.82467 13.2016 9.998 13.0567 10.138C12.9181 10.2713 12.7448 10.338 12.5369 10.338C12.329 10.338 12.1558 10.268 12.0172 10.128C11.8849 9.98133 11.8187 9.81133 11.8187 9.618Z" fill="#009DE1"/>
<path d="M13.886 12.268V11.248H14.8216V9.858H15.9556V11.248H17.203V12.268H15.9556V14.368C15.9556 14.608 15.9966 14.798 16.0785 14.938C16.1667 15.078 16.3368 15.148 16.5888 15.148C16.6896 15.148 16.7998 15.138 16.9195 15.118C17.0392 15.0913 17.1337 15.0513 17.203 14.998V16.008C17.0833 16.068 16.9353 16.108 16.7589 16.128C16.5888 16.1547 16.4376 16.168 16.3053 16.168C16.0029 16.168 15.754 16.1313 15.5587 16.058C15.3697 15.9913 15.2185 15.888 15.1051 15.748C14.998 15.6013 14.9224 15.4213 14.8783 15.208C14.8405 14.9947 14.8216 14.748 14.8216 14.468V12.268H13.886Z" fill="#009DE1"/>
<path d="M18.9954 14.068C19.0332 14.428 19.1655 14.708 19.3923 14.908C19.6191 15.108 19.8932 15.208 20.2145 15.208C20.498 15.208 20.7342 15.148 20.9232 15.028C21.1185 14.9013 21.2886 14.7447 21.4335 14.558L22.2462 15.208C21.9816 15.5547 21.6855 15.8013 21.3579 15.948C21.0303 16.0947 20.687 16.168 20.3279 16.168C19.9877 16.168 19.6664 16.108 19.364 15.988C19.0616 15.868 18.8001 15.698 18.5796 15.478C18.3591 15.258 18.1827 14.9947 18.0504 14.688C17.9244 14.3747 17.8614 14.028 17.8614 13.648C17.8614 13.268 17.9244 12.9247 18.0504 12.618C18.1827 12.3047 18.3591 12.038 18.5796 11.818C18.8001 11.598 19.0616 11.428 19.364 11.308C19.6664 11.188 19.9877 11.128 20.3279 11.128C20.6429 11.128 20.9295 11.188 21.1878 11.308C21.4524 11.4213 21.6761 11.588 21.8588 11.808C22.0478 12.028 22.1927 12.3013 22.2935 12.628C22.4006 12.948 22.4541 13.318 22.4541 13.738V14.068H18.9954ZM21.3201 13.168C21.3138 12.8147 21.2099 12.538 21.0083 12.338C20.8067 12.1313 20.5263 12.028 20.1672 12.028C19.827 12.028 19.5561 12.1313 19.3545 12.338C19.1592 12.5447 19.0395 12.8213 18.9954 13.168H21.3201Z" fill="#009DE1"/>
<path d="M23.5146 11.248H24.6486V12.008H24.6675C24.7935 11.728 24.973 11.5113 25.2061 11.358C25.4392 11.2047 25.707 11.128 26.0094 11.128C26.0787 11.128 26.1448 11.1347 26.2078 11.148C26.2771 11.1613 26.3464 11.178 26.4157 11.198V12.358C26.3212 12.3313 26.2267 12.3113 26.1322 12.298C26.044 12.278 25.9558 12.268 25.8676 12.268C25.603 12.268 25.3888 12.3213 25.225 12.428C25.0675 12.528 24.9447 12.6447 24.8565 12.778C24.7746 12.9113 24.7179 13.0447 24.6864 13.178C24.6612 13.3113 24.6486 13.4113 24.6486 13.478V16.048H23.5146V11.248Z" fill="#009DE1"/>
<path d="M28.3688 15.568C28.3688 15.708 28.3215 15.8347 28.227 15.948C28.1325 16.0547 28.0097 16.108 27.8585 16.108C27.7073 16.108 27.5844 16.0547 27.4899 15.948C27.3954 15.8347 27.3482 15.708 27.3482 15.568C27.3482 15.428 27.3954 15.3047 27.4899 15.198C27.5844 15.0847 27.7073 15.028 27.8585 15.028C28.0097 15.028 28.1325 15.0847 28.227 15.198C28.3215 15.3047 28.3688 15.428 28.3688 15.568Z" fill="#009DE1"/>
<path d="M32.3692 13.718C32.2117 13.718 32.0132 13.728 31.7738 13.748C31.5407 13.7613 31.3139 13.8013 31.0934 13.868C30.8792 13.928 30.6934 14.0247 30.5359 14.158C30.3847 14.2913 30.3091 14.4747 30.3091 14.708C30.3091 14.8613 30.3374 14.9947 30.3941 15.108C30.4571 15.2147 30.539 15.3047 30.6398 15.378C30.7406 15.4447 30.8509 15.4947 30.9706 15.528C31.0966 15.5547 31.2226 15.568 31.3486 15.568C31.5754 15.568 31.7707 15.528 31.9345 15.448C32.1046 15.368 32.2463 15.2613 32.3597 15.128C32.4731 14.988 32.555 14.828 32.6054 14.648C32.6621 14.4613 32.6905 14.2647 32.6905 14.058V13.718H32.3692ZM32.6905 13.178V13.058C32.6905 12.2513 32.3125 11.848 31.5565 11.848C31.0399 11.848 30.5894 12.0313 30.2051 12.398L29.8271 11.928C30.2429 11.4747 30.8666 11.248 31.6982 11.248C31.9124 11.248 32.1172 11.2813 32.3125 11.348C32.5141 11.4147 32.6873 11.518 32.8322 11.658C32.9771 11.7913 33.0937 11.9613 33.1819 12.168C33.2701 12.3747 33.3142 12.6213 33.3142 12.908V14.998C33.3142 15.178 33.3205 15.368 33.3331 15.568C33.352 15.7613 33.3709 15.9213 33.3898 16.048H32.785C32.7661 15.9347 32.7503 15.8113 32.7377 15.678C32.7314 15.5447 32.7283 15.4147 32.7283 15.288H32.7094C32.5267 15.6013 32.3093 15.828 32.0573 15.968C31.8116 16.1013 31.5092 16.168 31.1501 16.168C30.9548 16.168 30.7658 16.138 30.5831 16.078C30.4004 16.0247 30.2366 15.9413 30.0917 15.828C29.9531 15.708 29.8397 15.5647 29.7515 15.398C29.6696 15.2247 29.6287 15.0247 29.6287 14.798C29.6287 14.418 29.72 14.1213 29.9027 13.908C30.0917 13.688 30.3248 13.5247 30.602 13.418C30.8855 13.3113 31.1848 13.2447 31.4998 13.218C31.8211 13.1913 32.114 13.178 32.3786 13.178H32.6905Z" fill="#009DE1"/>
<path d="M35.2094 13.648C35.2094 13.8947 35.2504 14.128 35.3323 14.348C35.4205 14.5613 35.537 14.7513 35.6819 14.918C35.8331 15.078 36.0064 15.208 36.2017 15.308C36.4033 15.4013 36.6206 15.448 36.8537 15.448C37.0805 15.448 37.2947 15.4047 37.4963 15.318C37.7042 15.2313 37.8869 15.1113 38.0444 14.958C38.2019 14.798 38.3216 14.608 38.4035 14.388C38.4917 14.168 38.5327 13.9213 38.5264 13.648C38.5264 13.4013 38.4886 13.1713 38.413 12.958C38.3374 12.738 38.2271 12.548 38.0822 12.388C37.9373 12.2213 37.7609 12.0913 37.553 11.998C37.3451 11.898 37.112 11.848 36.8537 11.848C36.6206 11.848 36.4033 11.898 36.2017 11.998C36.0064 12.0913 35.8331 12.2213 35.6819 12.388C35.537 12.548 35.4205 12.738 35.3323 12.958C35.2504 13.1713 35.2094 13.4013 35.2094 13.648ZM35.096 16.988C35.2787 17.248 35.515 17.4547 35.8048 17.608C36.1009 17.768 36.4285 17.848 36.7876 17.848C37.1026 17.848 37.3703 17.798 37.5908 17.698C37.8113 17.6047 37.9877 17.4747 38.12 17.308C38.2586 17.1413 38.3563 16.9447 38.413 16.718C38.476 16.498 38.5075 16.2613 38.5075 16.008V15.168H38.4886C38.287 15.488 38.0413 15.7147 37.7515 15.848C37.4617 15.9813 37.1561 16.048 36.8348 16.048C36.5135 16.048 36.2111 15.988 35.9276 15.868C35.6504 15.748 35.4079 15.5847 35.2 15.378C34.9921 15.1647 34.8283 14.9113 34.7085 14.618C34.5888 14.3247 34.529 14.008 34.529 13.668C34.529 13.328 34.5857 13.0113 34.6991 12.718C34.8125 12.4247 34.9669 12.168 35.1622 11.948C35.3638 11.728 35.6 11.558 35.8709 11.438C36.1481 11.3113 36.4505 11.248 36.7781 11.248C36.9104 11.248 37.049 11.2613 37.1939 11.288C37.3451 11.3147 37.4932 11.3613 37.6381 11.428C37.7893 11.4947 37.9373 11.588 38.0822 11.708C38.2271 11.8213 38.3626 11.968 38.4886 12.148H38.5075V11.368H39.1312V16.008C39.1312 16.2613 39.0997 16.5313 39.0367 16.818C38.98 17.1047 38.8634 17.368 38.687 17.608C38.5169 17.848 38.2775 18.048 37.9688 18.208C37.6601 18.368 37.2569 18.448 36.7592 18.448C36.3182 18.448 35.9245 18.3713 35.578 18.218C35.2315 18.0647 34.9165 17.828 34.6329 17.508L35.096 16.988Z" fill="#009DE1"/>
<path d="M43.9727 13.348C43.9727 12.9013 43.8467 12.5413 43.5947 12.268C43.3427 11.988 42.9899 11.848 42.5363 11.848C42.3347 11.848 42.1394 11.8913 41.9504 11.978C41.7614 12.058 41.5944 12.168 41.4495 12.308C41.3109 12.448 41.1975 12.608 41.1093 12.788C41.0274 12.968 40.9865 13.1547 40.9865 13.348H43.9727ZM40.9676 13.888C40.9865 14.1213 41.04 14.3413 41.1282 14.548C41.2164 14.7547 41.333 14.9347 41.4779 15.088C41.6228 15.2347 41.7897 15.3513 41.9787 15.438C42.1677 15.5247 42.3725 15.568 42.593 15.568C42.9269 15.568 43.2135 15.488 43.4529 15.328C43.6986 15.1613 43.8845 14.9713 44.0105 14.758L44.4924 15.178C44.2278 15.5313 43.9349 15.7847 43.6136 15.938C43.2986 16.0913 42.9584 16.168 42.593 16.168C42.2654 16.168 41.9598 16.108 41.6763 15.988C41.3991 15.8613 41.1597 15.688 40.9581 15.468C40.7565 15.248 40.5959 14.988 40.4762 14.688C40.3628 14.388 40.3061 14.0613 40.3061 13.708C40.3061 13.3547 40.3628 13.028 40.4762 12.728C40.5896 12.428 40.7471 12.168 40.9487 11.948C41.1503 11.728 41.3865 11.558 41.6574 11.438C41.9283 11.3113 42.2213 11.248 42.5363 11.248C42.8702 11.248 43.1694 11.3113 43.434 11.438C43.6986 11.5647 43.9191 11.7347 44.0955 11.948C44.2782 12.1547 44.4168 12.4013 44.5113 12.688C44.6058 12.968 44.6531 13.268 44.6531 13.588V13.888H40.9676Z" fill="#009DE1"/>
<path d="M46.3792 11.368C46.3918 11.4947 46.3981 11.6213 46.3981 11.748C46.4044 11.868 46.4076 11.9913 46.4076 12.118H46.4265C46.4958 11.9913 46.584 11.8747 46.6911 11.768C46.7982 11.6613 46.9179 11.5713 47.0502 11.498C47.1825 11.418 47.3211 11.358 47.466 11.318C47.6172 11.2713 47.7652 11.248 47.9101 11.248C48.4771 11.248 48.8961 11.408 49.167 11.728C49.4379 12.0413 49.5733 12.4913 49.5733 13.078V16.048H48.9496V13.458C48.9496 12.938 48.8646 12.5413 48.6945 12.268C48.5244 11.988 48.2094 11.848 47.7495 11.848C47.718 11.848 47.6298 11.8613 47.4849 11.888C47.34 11.9147 47.1856 11.988 47.0218 12.108C46.8643 12.228 46.7226 12.408 46.5966 12.648C46.4706 12.888 46.4076 13.2213 46.4076 13.648V16.048H45.7839V12.398C45.7839 12.2713 45.7776 12.1113 45.765 11.918C45.7587 11.7247 45.7492 11.5413 45.7366 11.368H46.3792Z" fill="#009DE1"/>
<path d="M54.2574 12.468C54.1503 12.2947 53.9991 12.148 53.8038 12.028C53.6148 11.908 53.3974 11.848 53.1517 11.848C52.8934 11.8413 52.6603 11.8847 52.4524 11.978C52.2508 12.0713 52.0776 12.2013 51.9327 12.368C51.7878 12.5347 51.6775 12.7347 51.6019 12.968C51.5263 13.1947 51.4885 13.4413 51.4885 13.708C51.4885 13.9747 51.5263 14.2247 51.6019 14.458C51.6775 14.6847 51.7878 14.8813 51.9327 15.048C52.0776 15.2147 52.2508 15.3447 52.4524 15.438C52.6603 15.5313 52.8934 15.5747 53.1517 15.568C53.3974 15.568 53.6148 15.508 53.8038 15.388C53.9991 15.268 54.1503 15.1213 54.2574 14.948L54.7677 15.358C54.5472 15.6313 54.2983 15.8347 54.0211 15.968C53.7439 16.0947 53.4541 16.1613 53.1517 16.168C52.7926 16.1747 52.4682 16.118 52.1784 15.998C51.8886 15.8713 51.6397 15.698 51.4318 15.478C51.2302 15.258 51.0759 14.998 50.9688 14.698C50.8617 14.3913 50.8081 14.0613 50.8081 13.708C50.8081 13.3547 50.8617 13.028 50.9688 12.728C51.0759 12.4213 51.2302 12.158 51.4318 11.938C51.6397 11.718 51.8886 11.548 52.1784 11.428C52.4682 11.3013 52.7926 11.2413 53.1517 11.248C53.4541 11.2547 53.7439 11.3247 54.0211 11.458C54.2983 11.5847 54.5472 11.7847 54.7677 12.058L54.2574 12.468Z" fill="#009DE1"/>
<path d="M57.2381 15.238L58.5895 11.368H59.3455L57.1342 17.268C57.0019 17.628 56.8318 17.9147 56.6239 18.128C56.4223 18.3413 56.1293 18.448 55.745 18.448C55.6505 18.448 55.5529 18.4447 55.4521 18.438C55.3576 18.4313 55.2631 18.4113 55.1686 18.378L55.2347 17.738C55.367 17.8113 55.5245 17.848 55.7072 17.848C55.9277 17.848 56.101 17.7747 56.227 17.628C56.353 17.4813 56.4632 17.2747 56.5577 17.008L56.879 16.108L55.0646 11.368H55.849L57.2381 15.238Z" fill="#009DE1"/>
</svg>
